<?xml version="1.0" standalone="no"?>
<!DOCTYPE svg PUBLIC "-//W3C//DTD SVG 1.1//EN" "http://www.w3.org/Graphics/SVG/1.1/DTD/svg11.dtd" >
<svg xmlns="http://www.w3.org/2000/svg" xmlns:xlink="http://www.w3.org/1999/xlink" version="1.1">
<metadata></metadata>
<defs>
<font id="juraregular" horiz-adv-x="1146" >
<font-face units-per-em="2048" ascent="1638" descent="-410" />
<missing-glyph horiz-adv-x="512" />
<glyph unicode="&#xfb01;" horiz-adv-x="1110" d="M68 913q0 53 53 54h88v92q0 188 87 274t275 86h324q63 1 63 -69v-43q0 -33 -16 -50.5t-47 -17.5h-45q-25 0 -43 12l-236 62q-143 0 -199.5 -55.5t-56.5 -198.5v-92h559q53 0 54 -54q0 -12 -2 -18v-842q0 -53 -54 -53q-25 0 -39 13.5t-14 39.5v807h-504v-807 q0 -53 -53 -53t-53 53v807h-88q-53 0 -53 53z" />
<glyph unicode="&#xfb02;" horiz-adv-x="1189" d="M68 913q0 53 53 54h88v90q0 188 87 275t275 87h301q53 0 54 -53v-1114q0 -80 30.5 -111.5t112.5 -34.5q29 -2 41 -15t12 -40q0 -25 -13 -39t-40 -12q-127 4 -188.5 65.5t-61.5 186.5v1061h-248q-143 0 -199.5 -55.5t-56.5 -200.5v-90h252q53 0 54 -54q0 -53 -54 -53h-252 v-807q0 -53 -53 -53t-53 53v807h-88q-53 0 -53 53z" />
<glyph horiz-adv-x="0" />
<glyph unicode="&#xd;" horiz-adv-x="512" />
<glyph horiz-adv-x="0" />
<glyph horiz-adv-x="0" />
<glyph unicode=" "  horiz-adv-x="512" />
<glyph unicode="&#x09;" horiz-adv-x="512" />
<glyph unicode="&#xa0;" horiz-adv-x="512" />
<glyph unicode="!" horiz-adv-x="454" d="M150 59v39q0 29 15 44.5t44 15.5h39q57 0 57 -60v-39q0 -59 -57 -59h-39q-29 0 -44 15.5t-15 43.5zM176 367v1001q0 53 53 53t54 -53v-1001q0 -53 -54 -54q-53 1 -53 54z" />
<glyph unicode="&#x22;" horiz-adv-x="618" d="M150 991v418q0 20 14 34.5t37 14.5q20 0 34.5 -14t14.5 -35v-418q0 -20 -14.5 -34.5t-34.5 -14.5q-23 0 -37 14.5t-14 34.5zM369 991v418q0 20 14 34.5t37 14.5q20 0 34.5 -14t14.5 -35v-418q0 -20 -14.5 -34.5t-34.5 -14.5q-23 0 -37 14.5t-14 34.5z" />
<glyph unicode="#" horiz-adv-x="1183" d="M68 477q0 20 14 34.5t37 14.5h186l86 312h-158q-23 0 -37 14t-14 35q0 20 14.5 34.5t36.5 14.5h185l104 373q4 16 17.5 26.5t31.5 10.5q20 0 35 -14.5t15 -35.5q0 -10 -3 -14l-96 -346h264l105 373q4 16 17.5 26.5t31.5 10.5q20 0 34.5 -14.5t14.5 -35.5q0 -10 -2 -14 l-96 -346h217q20 0 34.5 -14.5t14.5 -34.5t-14.5 -34.5t-34.5 -14.5h-246l-86 -312h217q20 0 34.5 -14t14.5 -35q0 -20 -14 -34.5t-35 -14.5h-243l-111 -395q-4 -16 -17.5 -26.5t-29.5 -10.5q-23 0 -37 14.5t-14 34.5q0 10 2 14l102 369h-264l-111 -395q-4 -16 -17 -26.5 t-30 -10.5q-22 0 -36.5 14.5t-14.5 34.5q0 10 2 14l102 369h-157q-23 0 -37 14.5t-14 34.5zM408 526h266l86 312h-266z" />
<glyph unicode="$" horiz-adv-x="1310" d="M164 350q0 25 14.5 39t38.5 14q25 0 39 -14t14 -39q0 -137 53.5 -190.5t190.5 -53.5h96v488h-65q-172 0 -253 85t-81 259q0 172 80 252t252 80h75v151q0 49 52 49q49 0 49 -49v-151h72q172 0 251.5 -80t79.5 -250q0 -25 -14 -39t-39 -14t-39 14t-14 39q0 125 -50.5 174 t-174.5 49h-72v-463h78q182 0 266 -84t84 -266q0 -180 -84 -265t-266 -85h-86v-123q0 -49 -52 -49q-49 0 -49 49v123h-96q-180 0 -265 85t-85 265zM317 938q0 -127 51.5 -182.5t176.5 -55.5h73v463h-75q-125 0 -175.5 -49t-50.5 -176zM711 106h86q137 0 190 53.5t53 190.5 t-53 190.5t-190 53.5h-86v-488z" />
<glyph unicode="%" horiz-adv-x="1546" d="M109 899v154q0 137 64.5 201.5t201.5 64.5h33q135 0 199.5 -64.5t64.5 -201.5v-152q0 -137 -64.5 -201.5t-199.5 -64.5h-33q-137 0 -201.5 64.5t-64.5 199.5zM213 899q0 -90 35 -125t127 -35h33q90 0 124.5 35t34.5 127v152q0 92 -34.5 126.5t-124.5 34.5h-33 q-92 0 -127 -33.5t-35 -127.5v-154zM240 45q0 16 10 33l944 1249q16 23 43 23q23 0 38 -15.5t15 -38.5q0 -10 -4 -19t-6 -13l-944 -1250q-16 -23 -43 -22q-23 0 -38 15.5t-15 37.5zM874 264v154q0 137 65 201.5t200 64.5h32q135 0 200 -64.5t65 -201.5v-152 q0 -137 -64.5 -201.5t-200.5 -64.5h-32q-135 0 -200 64.5t-65 199.5zM977 264q0 -90 35 -125t127 -35h32q92 0 127 35t35 127v152q0 92 -34.5 127t-127.5 35h-32q-92 0 -127 -34t-35 -128v-154z" />
<glyph unicode="&#x26;" horiz-adv-x="1253" d="M123 414q0 154 49 248t154 139q-33 45 -46.5 91t-13.5 107q0 158 74 233t231 75h52q143 0 216.5 -60.5t86.5 -189.5q2 -27 -12.5 -41.5t-39.5 -14.5q-47 0 -57 54q-8 80 -52 112.5t-142 32.5h-52q-113 0 -155.5 -44t-42.5 -157q0 -72 27.5 -118.5t111.5 -120.5l418 -369 v23v104q0 53 53 53t53 -53v-104q0 -57 -6 -111l162 -143q20 -19 20 -39t-16 -37q-20 -20 -39 -21q-14 0 -37 17l-121 106q-45 -100 -139 -148t-248 -48h-65q-223 0 -323.5 100t-100.5 324zM229 414q0 -119 31 -187.5t99.5 -99.5t187.5 -31h65q131 0 202 39t97 129l-469 414 l-41 37l-8 -2q-88 -29 -126 -98.5t-38 -200.5z" />
<glyph unicode="'" horiz-adv-x="399" d="M150 991v418q0 20 14 34.5t37 14.5q20 0 34.5 -14t14.5 -35v-418q0 -20 -14.5 -34.5t-34.5 -14.5q-23 0 -37 14.5t-14 34.5z" />
<glyph unicode="(" horiz-adv-x="544" d="M109 111v788q0 244 87 355.5t279 111.5q20 0 34.5 -14.5t14.5 -34.5t-14 -34.5t-35 -14.5q-98 0 -156.5 -36t-84 -116t-25.5 -217v-788q0 -131 25.5 -206t84 -109t156.5 -34q20 0 34.5 -14t14.5 -35q0 -20 -14 -34.5t-35 -14.5q-192 0 -279 106.5t-87 340.5z" />
<glyph unicode=")" horiz-adv-x="544" d="M20 -287q0 20 14.5 34.5t35.5 14.5q98 0 156.5 34t84 109t25.5 206v788q0 137 -25.5 217t-84 116t-156.5 36q-20 0 -35 14t-15 35q0 20 14.5 34.5t35.5 14.5q193 0 279.5 -111.5t86.5 -355.5v-788q0 -233 -87 -340t-279 -107q-21 0 -35.5 14.5t-14.5 34.5z" />
<glyph unicode="*" horiz-adv-x="794" d="M137 895q0 25 27 39l133 78l-133 75q-27 14 -27 41q0 14 8 29q16 27 41 27q12 0 27 -8l135 -78v153q0 51 49 52q49 0 49 -52v-153l136 78q14 8 28 8q23 0 39 -27q8 -14 8 -29q0 -27 -26 -41l-133 -75l133 -78q26 -14 26 -39q0 -14 -8 -29q-14 -27 -39 -26q-14 0 -28 8 l-136 78v-156q0 -49 -49 -49t-49 49v156l-135 -78q-14 -8 -29 -8q-25 0 -39 26q-8 14 -8 29z" />
<glyph unicode="+" d="M150 670q0 49 51 49h301v297q0 51 49 51t49 -51v-297h348q49 0 49 -49t-49 -49h-348v-353q0 -49 -49 -49t-49 49v353h-301q-51 0 -51 49z" />
<glyph unicode="," horiz-adv-x="419" d="M68 -156l47 260q2 27 17 40.5t42 13.5h39q57 0 57 -60v-39q0 -29 -12 -41l-94 -190q-16 -33 -47 -33q-23 0 -38.5 13.5t-10.5 35.5z" />
<glyph unicode="-" horiz-adv-x="964" d="M150 553q0 20 14 34.5t37 14.5h565q20 0 34.5 -14.5t14.5 -34.5t-14.5 -34.5t-34.5 -14.5h-565q-23 0 -37 14t-14 35z" />
<glyph unicode="." horiz-adv-x="454" d="M150 59v39q0 29 15 44.5t44 15.5h39q57 0 57 -60v-39q0 -59 -57 -59h-39q-29 0 -44 15.5t-15 43.5z" />
<glyph unicode="/" horiz-adv-x="698" d="M96 -233q0 14 2 20l420 1634q8 41 51 41q27 0 40.5 -12t13.5 -35q0 -12 -2 -20l-420 -1635q-8 -41 -51 -41q-27 0 -40.5 12.5t-13.5 35.5z" />
<glyph unicode="0" horiz-adv-x="1247" d="M137 422v467q0 221 102.5 322.5t323.5 101.5h123q221 0 323.5 -101.5t102.5 -324.5v-465q0 -223 -102.5 -324.5t-323.5 -101.5h-123q-223 0 -324.5 101.5t-101.5 324.5zM244 422q0 -119 30.5 -188.5t99 -100.5t189.5 -31h123q176 0 248 72t72 248v465q0 176 -72 247.5 t-248 71.5h-123q-121 0 -189.5 -30.5t-99 -99t-30.5 -187.5v-467zM575 633v39q0 29 15.5 44t44.5 15h39q57 0 57 -59v-39q0 -59 -57 -60h-39q-29 0 -44.5 15.5t-15.5 44.5z" />
<glyph unicode="1" horiz-adv-x="724" d="M150 1016q0 20 20 39l240 237q27 27 65 27q45 0 45 -53v-1213q0 -53 -53 -53t-53 53v1098l-174 -170q-18 -18 -37 -18q-20 0 -35 18q-18 16 -18 35z" />
<glyph unicode="2" horiz-adv-x="1161" d="M117 1030q12 150 96 219.5t248 69.5h219q178 0 262 -84t84 -262q0 -100 -46 -172t-116.5 -121t-204.5 -125q-160 -92 -236.5 -146.5t-122.5 -126t-56 -176.5h739q53 0 53 -53t-53 -53h-795q-53 0 -53 53q0 150 53.5 249t146.5 171t271 174q127 72 186.5 112t93.5 91 t34 123q0 133 -53.5 186t-186.5 53h-219q-121 0 -175.5 -42t-62.5 -142q-6 -53 -55 -53q-27 0 -40 14.5t-11 40.5z" />
<glyph unicode="3" horiz-adv-x="1210" d="M109 311q-2 27 12 41.5t41 14.5q49 0 53 -54q8 -113 67.5 -158.5t190.5 -45.5h234q145 0 202.5 56t57.5 202q0 145 -57.5 201.5t-202.5 56.5h-191q-25 0 -39 13t-14 40t14.5 40t38.5 13h217q111 0 156 58.5t45 183.5q0 133 -52.5 186t-187.5 53h-198q-121 0 -174.5 -42 t-61.5 -142q-6 -53 -55 -53q-27 0 -40 14.5t-11 40.5q12 150 95 219.5t247 69.5h198q180 0 263 -84t83 -262q0 -207 -147 -283q92 -39 136 -118.5t44 -204.5q0 -188 -88 -276.5t-278 -88.5h-234q-176 0 -264 75t-100 234z" />
<glyph unicode="4" horiz-adv-x="1112" d="M68 340q0 27 22 55l686 891q25 33 68 33q51 0 51 -53l-6 -873h102q27 0 40 -14t13 -39q0 -53 -53 -53h-102l-2 -234q0 -53 -53 -53t-54 53l2 234h-661q-53 0 -53 53zM213 391l569 2l6 748z" />
<glyph unicode="5" horiz-adv-x="1216" d="M137 309q-2 27 11.5 41.5t39.5 14.5q49 0 56 -54q8 -113 66.5 -159t191.5 -46h213q145 0 202.5 58.5t57.5 202.5v141q0 145 -57.5 202.5t-202.5 57.5h-152q-195 0 -266 -66q-29 -25 -51 -24q-4 0 -21 4l-10 4q-45 12 -45 59v521q0 53 53 53h793q53 0 53 -53t-53 -54h-740 v-395q100 57 287 57h152q188 0 277 -89t89 -277v-141q0 -188 -89 -277.5t-277 -89.5h-213q-176 0 -264 75t-101 234z" />
<glyph unicode="6" horiz-adv-x="1218" d="M137 367v606q0 178 83 262t263 84h254q164 0 248 -69.5t96 -219.5q4 -55 -53 -55q-49 0 -53 53q-8 100 -62.5 142t-175.5 42h-254q-135 0 -187 -53t-52 -186v-230q35 66 99.5 97.5t160.5 31.5h213q188 0 277 -89t89 -277v-137q0 -190 -89 -278.5t-277 -88.5h-213 q-191 0 -279 88t-88 277zM244 367q0 -145 57 -201.5t203 -56.5h213q145 0 202.5 57t57.5 203v137q0 145 -57.5 202.5t-202.5 57.5h-213q-145 0 -202.5 -56.5t-57.5 -201.5v-141z" />
<glyph unicode="7" horiz-adv-x="972" d="M68 1266q0 53 53 53h729q53 0 53 -55q0 -207 -58.5 -335t-199.5 -229q-100 -72 -152.5 -146.5t-74 -188t-25.5 -310.5q0 -55 -53 -55t-53 55q4 203 28.5 331t87 222t181.5 178q111 78 159 173.5t54 252.5h-676q-53 0 -53 54z" />
<glyph unicode="8" horiz-adv-x="1239" d="M137 365q0 125 44 203.5t136 117.5q-137 84 -137 287q0 178 83 262t263 84h199q178 0 262 -84t84 -262q0 -207 -141 -289q88 -39 131 -118t43 -201q0 -188 -89 -276.5t-278 -88.5h-233q-190 0 -278.5 88t-88.5 277zM244 365q0 -145 57 -202t203 -57h233q146 0 203 56.5 t57 202.5q0 145 -57 201.5t-203 56.5h-233q-145 0 -202.5 -56.5t-57.5 -201.5zM287 973q0 -135 52 -189.5t181 -54.5h236q117 2 163 59.5t46 184.5q0 133 -53.5 186t-186.5 53h-199q-135 0 -187 -53t-52 -186z" />
<glyph unicode="9" horiz-adv-x="1218" d="M135 813v137q0 190 89 278.5t278 88.5h213q190 0 278 -88t88 -277v-606q0 -178 -83 -262t-263 -84h-254q-164 0 -247.5 69.5t-96.5 219.5q-2 55 53 55q49 0 54 -53q8 -100 62 -142.5t175 -42.5h254q135 0 187.5 53.5t52.5 186.5v229q-35 -66 -99.5 -97.5t-160.5 -31.5 h-213q-188 0 -277.5 89.5t-89.5 277.5zM242 813q0 -143 58 -201.5t202 -58.5h213q145 0 202.5 56.5t57.5 201.5v141q0 145 -57.5 201.5t-202.5 56.5h-213q-145 0 -202.5 -57t-57.5 -203v-137z" />
<glyph unicode=":" horiz-adv-x="454" d="M150 59v39q0 29 15 44.5t44 15.5h39q57 0 57 -60v-39q0 -59 -57 -59h-39q-29 0 -44 15.5t-15 43.5zM150 735v39q0 29 15 44.5t44 15.5h39q57 0 57 -60v-39q0 -59 -57 -59h-39q-29 0 -44 15.5t-15 43.5z" />
<glyph unicode=";" horiz-adv-x="419" d="M68 -156l47 260q2 27 17 40.5t42 13.5h39q57 0 57 -60v-39q0 -29 -12 -41l-94 -190q-16 -33 -47 -33q-23 0 -38.5 13.5t-10.5 35.5zM115 735v39q0 29 15 44.5t44 15.5h39q57 0 57 -60v-39q0 -59 -57 -59h-39q-29 0 -44 15.5t-15 43.5z" />
<glyph unicode="&#x3c;" d="M217 670q0 37 35 57l600 334q14 8 29 8q27 0 41 -27q8 -14 8 -28q0 -25 -29 -41l-551 -305l551 -310q29 -18 29 -43q0 -12 -8 -26q-16 -29 -41 -29q-14 0 -29 8l-600 338q-35 20 -35 64z" />
<glyph unicode="=" d="M150 535q0 49 51 49h747q49 0 49 -49t-49 -49h-747q-51 0 -51 49zM150 797q0 49 51 49h747q49 0 49 -49t-49 -49h-747q-51 0 -51 49z" />
<glyph unicode="&#x3e;" d="M215 315q0 25 29 43l551 310l-551 305q-29 16 -29 41q0 14 8 28q14 27 41 27q14 0 29 -8l600 -334q35 -20 35 -57q0 -43 -35 -64l-600 -338q-14 -8 -29 -8q-25 0 -41 29q-8 14 -8 26z" />
<glyph unicode="?" horiz-adv-x="995" d="M41 961q0 178 84 262t262 84h137q180 0 263 -83t83 -263q0 -102 -29.5 -171t-71.5 -107t-105 -79q-57 -37 -88 -65.5t-49.5 -75.5t-18.5 -125q0 -53 -53 -53q-54 0 -54 53q0 102 30 171t72 106.5t105 78.5q57 37 88 65.5t49.5 76t18.5 125.5q0 133 -53.5 186t-186.5 53 h-137q-133 0 -186.5 -53t-53.5 -186q0 -53 -53 -54q-53 0 -53 54zM379 59v39q0 29 15.5 44.5t43.5 15.5h39q57 0 58 -60v-39q0 -59 -58 -59h-39q-28 0 -43.5 15.5t-15.5 43.5z" />
<glyph unicode="@" horiz-adv-x="1474" d="M164 307v518q0 168 71.5 242t233.5 72h532q164 0 237 -74t73 -242v-401q0 -94 -47 -135t-150 -41q-68 0 -107.5 23.5t-60.5 86.5q-39 -63 -99.5 -88.5t-150.5 -25.5h-14q-133 0 -195.5 61.5t-62.5 194.5v135q0 137 61.5 199.5t194.5 62.5h84q57 0 95 -15.5t67 -60.5 q4 76 45 76q23 0 37 -13.5t14 -35.5v-424q0 -49 15.5 -62.5t76.5 -13.5t78.5 13.5t17.5 62.5v401q0 86 -18 132t-63.5 65.5t-127.5 19.5h-532q-82 2 -125 -17t-61.5 -65.5t-18.5 -132.5v-518q0 -86 18.5 -132t61.5 -65.5t125 -17.5h563q61 0 100 13.5t78 48.5q16 10 33 10 q23 0 37 -14.5t14 -34.5t-18 -39q-51 -43 -109.5 -62.5t-134.5 -19.5h-563q-162 -2 -233.5 71.5t-71.5 241.5zM524 498q0 -90 34 -123t124 -33h14q117 0 171.5 38t54.5 118v133q0 98 -32 132t-126 34h-84q-90 0 -123 -34t-33 -130v-135z" />
<glyph unicode="A" horiz-adv-x="1255" d="M53 51q0 16 4 25l508 1202q16 41 62 41h4q41 0 59 -41l508 -1202q6 -15 6 -27q0 -27 -35 -43q-12 -6 -26 -6q-29 0 -41 33l-137 323h-7h-663l-137 -323q-14 -33 -45 -33q-10 0 -27 6q-33 12 -33 45zM338 463h582l-291 688z" />
<glyph unicode="B" horiz-adv-x="1269" d="M190 53v1213q0 53 54 53h534q150 0 227.5 -77t77.5 -222v-55q0 -162 -102 -228q178 -73 178 -319v-66q0 -174 -90 -263t-264 -89h-561q-53 0 -54 53zM297 106h508q131 0 189.5 58.5t58.5 187.5v66q0 129 -58.5 186.5t-189.5 57.5h-508v-556zM297 768h508h12h4 q156 8 156 197v55q0 102 -46 147t-153 45h-481v-444z" />
<glyph unicode="C" horiz-adv-x="1361" d="M164 426v467q0 223 101.5 324.5t322.5 101.5h248q188 0 280 -79t103 -253v-7q0 -46 -54 -46q-49 0 -53 53q-8 125 -69.5 175t-206.5 50h-248q-119 0 -187.5 -30.5t-99.5 -99t-31 -189.5v-467q0 -121 31 -189.5t99.5 -99.5t189.5 -31h246q145 0 206.5 49.5t69.5 176.5 q4 53 53 53q54 0 54 -50v-5q-10 -174 -102.5 -252t-280.5 -78h-246q-221 0 -323.5 102.5t-102.5 323.5z" />
<glyph unicode="D" horiz-adv-x="1388" d="M190 53v1213q0 53 54 53h493q254 0 371 -117t117 -371v-344q0 -254 -116 -370.5t-372 -116.5h-493q-54 0 -54 53zM297 106h440q141 0 224 37t120 120t37 224v344q0 141 -37 224.5t-119.5 120t-224.5 36.5h-440v-1106z" />
<glyph unicode="E" d="M190 53v1213q0 53 54 53h768q53 0 53 -53t-53 -54h-715v-491h473q53 0 53 -53t-53 -54h-473v-508h715q53 0 53 -53t-53 -53h-768q-53 0 -54 53z" />
<glyph unicode="F" horiz-adv-x="1036" d="M190 53v1213q0 53 54 53h739q53 0 53 -53t-53 -54h-686v-491h469q53 0 53 -53t-53 -54h-469v-561q0 -53 -53 -53q-54 0 -54 53z" />
<glyph unicode="G" horiz-adv-x="1363" d="M164 426v467q0 223 101.5 324.5t322.5 101.5h248q188 0 280 -79t103 -253v-7q0 -46 -54 -46q-49 0 -53 53q-8 125 -69.5 175t-206.5 50h-248q-119 0 -187.5 -30.5t-99.5 -99t-31 -189.5v-467q0 -121 31 -189.5t99.5 -99.5t189.5 -31h246q106 0 166.5 26t86 86.5 t25.5 166.5v129l-225 2q-53 0 -53 53t53 54l278 -2q53 0 54 -54v-182q0 -203 -91.5 -294t-293.5 -91h-246q-221 0 -323.5 102.5t-102.5 323.5z" />
<glyph unicode="H" horiz-adv-x="1454" d="M190 53v1213q0 25 14.5 39t39.5 14t39 -14.5t14 -38.5v-545h860v545q0 25 14.5 39t38.5 14q25 0 39.5 -14.5t14.5 -38.5v-1213q0 -25 -14.5 -39t-39.5 -14t-39 14.5t-14 38.5v561h-860v-561q0 -25 -14.5 -39t-38.5 -14q-25 0 -39.5 14.5t-14.5 38.5z" />
<glyph unicode="I" horiz-adv-x="487" d="M190 53v1213q0 25 14.5 39t39.5 14t39 -14.5t14 -38.5v-1213q0 -25 -14.5 -39t-38.5 -14q-25 0 -39.5 14.5t-14.5 38.5z" />
<glyph unicode="J" horiz-adv-x="1071" d="M49 330q-2 27 12.5 41t40.5 14q49 0 54 -53q8 -127 70.5 -176.5t207.5 -49.5h82q106 0 166.5 26t86.5 86.5t26 166.5v881q0 53 53 53t53 -53v-881q0 -203 -91 -294t-294 -91h-82q-188 0 -280.5 78t-104.5 252z" />
<glyph unicode="K" horiz-adv-x="1126" d="M190 53v1213q0 53 54 53q53 0 53 -53v-592l610 626q18 18 37 19q18 0 37 -19q18 -18 18 -38q0 -16 -16 -37l-459 -471l541 -670q14 -17 14 -35q0 -23 -22 -41q-16 -14 -35 -14q-20 0 -39 22l-532 662l-154 -158v-467q0 -53 -53 -53t-54 53z" />
<glyph unicode="L" horiz-adv-x="1021" d="M190 53v1213q0 53 54 53q53 0 53 -53v-1160h625q53 0 53 -53t-53 -53h-678q-54 0 -54 53z" />
<glyph unicode="M" horiz-adv-x="1603" d="M190 53v1213q0 53 54 53q41 0 61 -35l500 -764l498 764q20 35 63 35q47 0 47 -53v-1213q0 -53 -53 -53t-53 53v1045l-443 -672q-20 -35 -63 -35q-37 0 -60 35l-444 678v-1051q0 -53 -53 -53t-54 53z" />
<glyph unicode="N" horiz-adv-x="1439" d="M190 53v1213q0 53 54 53q31 0 55 -31l844 -1085v1063q0 53 53 53t53 -53v-1213q0 -53 -53 -53q-29 0 -53 31l-846 1087v-1065q0 -53 -53 -53t-54 53z" />
<glyph unicode="O" horiz-adv-x="1425" d="M164 426v467q0 223 102 325q101 101 314 101h8h248q223 0 324.5 -102.5t101.5 -323.5v-467q0 -223 -101.5 -324.5t-324.5 -101.5h-246q-223 0 -324.5 101.5t-101.5 324.5zM270 426q0 -176 72 -248t248 -72h246q176 0 247.5 72t71.5 248v467q0 176 -71.5 247.5 t-247.5 71.5h-248h-14q-110 0 -174 -28q-68 -30 -99 -100t-31 -191v-467z" />
<glyph unicode="P" d="M190 53v1213q0 53 54 53h479q174 0 264 -90t90 -264v-62q0 -174 -89 -264t-265 -90h-426v-496q0 -53 -53 -53t-54 53zM297 655h426q131 0 189.5 58.5t58.5 189.5v62q0 129 -58.5 188t-189.5 59h-426v-557z" />
<glyph unicode="Q" horiz-adv-x="1427" d="M164 426v467q0 223 102 325q101 101 314 101h8h248q223 0 324.5 -102.5t101.5 -323.5v-467q0 -236 -113 -334l98 -100q17 -17 17 -35q0 -16 -19 -35q-14 -16 -35 -16q-18 0 -34 16l-113 115q-92 -37 -227 -37h-246q-223 0 -324.5 101.5t-101.5 324.5zM270 426 q0 -176 72 -248t248 -72h246q90 1 145 17l-80 80q-16 20 -16 37q0 18 16 34q20 16 35 17q18 0 37 -19l100 -104q43 39 62.5 101.5t19.5 156.5v467q0 176 -71.5 247.5t-247.5 71.5h-248h-14q-109 0 -174 -28q-68 -31 -99 -100.5t-31 -190.5v-467z" />
<glyph unicode="R" horiz-adv-x="1212" d="M190 53v1213q0 53 54 53h479q174 0 264 -90t90 -264v-62q0 -156 -70.5 -244t-207.5 -106l303 -483q10 -17 10 -31q0 -25 -29 -41q-16 -10 -30 -10q-27 0 -41 26l-338 535h-377v-496q0 -53 -53 -53t-54 53zM297 655h426q131 0 189.5 58.5t58.5 189.5v62q0 129 -58.5 188 t-189.5 59h-426v-557z" />
<glyph unicode="S" horiz-adv-x="1353" d="M164 340q-2 25 13.5 40t39.5 15q23 0 37 -14t16 -39q4 -131 61.5 -182t196.5 -51h295q147 0 203.5 56t56.5 202q0 145 -57 201.5t-203 56.5h-280q-180 0 -264 84t-84 264q0 178 83.5 262t262.5 84h288q172 0 255 -78t90 -242q2 -25 -13.5 -39t-40.5 -14q-23 0 -37 14.5 t-16 36.5q-2 119 -56.5 167t-181.5 48h-288q-133 0 -186.5 -53t-53.5 -186q0 -135 53.5 -188.5t188.5 -53.5h280q190 0 278.5 -88t88.5 -276t-88 -276.5t-279 -88.5h-295q-182 0 -270 81t-94 257z" />
<glyph unicode="T" horiz-adv-x="1161" d="M37 1266q0 25 15.5 39t37.5 14h979q25 0 39 -14.5t14 -38.5q0 -23 -14 -38.5t-39 -15.5h-436v-1161q0 -23 -14.5 -38t-38.5 -15q-23 0 -38.5 15.5t-15.5 37.5v1161h-436q-23 0 -38 15.5t-15 38.5z" />
<glyph unicode="U" horiz-adv-x="1437" d="M170 426v840q0 23 15.5 38t37.5 15q25 0 39 -15.5t14 -37.5v-840q0 -176 72 -248t248 -72h246q121 0 189.5 31t99 100.5t30.5 188.5v840q0 23 15.5 38t37.5 15q25 0 39.5 -15.5t14.5 -37.5v-840q0 -223 -101.5 -324.5t-324.5 -101.5h-246q-221 0 -323.5 101.5 t-102.5 324.5z" />
<glyph unicode="V" horiz-adv-x="1245" d="M27 1268q0 18 13 30.5t32 16.5q4 2 14 2q31 0 43 -33l494 -1116l491 1116q13 33 42 33q7 0 15 -2q20 -4 33 -15.5t13 -29.5q0 -10 -7 -27l-532 -1206q-16 -37 -51 -37h-13q-33 0 -49 37l-532 1206q-6 12 -6 25z" />
<glyph unicode="W" horiz-adv-x="1751" d="M27 1268q0 18 12 32.5t35 16.5h10q39 0 47 -37l352 -1073l330 1071q12 41 55 41h15q41 0 53 -41l332 -1075l350 1077q12 37 47 37q29 0 43 -13.5t14 -33.5q0 -6 -4 -23l-393 -1206q-12 -41 -51 -41h-10q-41 0 -54 41l-336 1083l-337 -1083q-8 -20 -19.5 -30.5 t-34.5 -10.5h-10q-37 0 -49 41l-393 1206q-4 12 -4 21z" />
<glyph unicode="X" horiz-adv-x="1177" d="M84 55q0 14 10 31l414 602l-389 545q-12 16 -13 33q0 23 25 41q14 10 33 10q25 0 43 -25l371 -520l385 522q18 25 38 25q12 0 35 -14q25 -18 25 -41q0 -14 -12 -33l-404 -551l424 -594q12 -14 12 -33q0 -23 -24 -41q-18 -12 -33 -12q-25 0 -41 25l-410 571l-391 -569 q-16 -27 -41 -27q-14 0 -32 12q-25 18 -25 43z" />
<glyph unicode="Y" horiz-adv-x="1103" d="M27 1266q0 25 28 43q16 10 31 10q25 0 43 -29l420 -665l426 667q16 25 41 25q16 0 33 -10q26 -14 26 -39q0 -16 -10 -33l-463 -725v-457q0 -53 -53 -53t-53 53v457l-459 725q-10 16 -10 31z" />
<glyph unicode="Z" horiz-adv-x="1263" d="M88 1071q14 121 90 184.5t211 63.5h678q53 0 53 -53q0 -33 -22 -64l-822 -1096h598q90 0 137.5 35t57.5 111q6 51 53 51q29 0 42.5 -14.5t11.5 -40.5q-12 -123 -89 -185.5t-213 -62.5h-698q-57 0 -57 53q0 14 7 28.5t19 29.5l828 1101h-584q-90 0 -137 -34.5t-55 -110.5 q-4 -27 -17.5 -39t-40.5 -12q-25 0 -39 15.5t-12 39.5z" />
<glyph unicode="[" horiz-adv-x="401" d="M109 -287v1604q0 49 51 49h172q20 0 34.5 -14.5t14.5 -34.5t-14.5 -34.5t-34.5 -14.5h-123v-1506h123q20 0 34.5 -14t14.5 -35q0 -20 -14.5 -34.5t-34.5 -14.5h-172q-51 0 -51 49z" />
<glyph unicode="\" horiz-adv-x="698" d="M76 1415q0 23 13 35t40 12q43 0 51 -41l420 -1634q2 -6 2 -20q0 -23 -13.5 -35.5t-39.5 -12.5q-43 0 -51 41l-420 1635q-2 8 -2 20z" />
<glyph unicode="]" horiz-adv-x="401" d="M20 -287q0 20 14.5 34.5t35.5 14.5h123v1506h-123q-20 0 -35 14t-15 35q0 20 14.5 34.5t35.5 14.5h172q51 0 51 -49v-1604q0 -49 -51 -49h-172q-20 0 -35 14.5t-15 34.5z" />
<glyph unicode="^" horiz-adv-x="788" d="M150 899q0 10 4 19l161 419q18 39 58 39h43q39 0 57 -39l162 -419q4 -8 4 -19q0 -20 -14.5 -34.5t-34.5 -14.5q-16 0 -29.5 9t-17.5 24l-148 381l-147 -381q-6 -14 -19.5 -23.5t-27.5 -9.5q-23 0 -37 14.5t-14 34.5z" />
<glyph unicode="_" horiz-adv-x="890" d="M102 -53q0 53 54 53h518q53 0 53 -53t-53 -53h-518q-54 0 -54 53z" />
<glyph unicode="`" horiz-adv-x="485" d="M102 1321q0 18 21 37q14 14 33 14q20 0 39 -20l176 -209q12 -18 12 -35q0 -18 -21 -37q-14 -14 -32 -14q-20 0 -39 20l-176 209q-12 18 -13 35z" />
<glyph unicode="a" horiz-adv-x="1202" d="M150 307q0 160 74.5 234.5t232.5 74.5h467q-4 135 -61.5 189.5t-200.5 54.5h-119q-131 0 -190.5 -27.5t-73.5 -95.5q-8 -27 -20.5 -38t-35.5 -11q-29 0 -42 14.5t-11 40.5q14 117 105.5 170.5t267.5 53.5h119q192 0 280 -88t88 -281v-545q0 -53 -53 -53t-53 53v101 q-49 -76 -138.5 -115t-214.5 -39h-114q-158 0 -232.5 73.5t-74.5 233.5zM256 307q0 -113 44 -157t157 -44h114q317 0 349 205l4 17v182h-467q-115 0 -158 -44t-43 -159z" />
<glyph unicode="b" horiz-adv-x="1259" d="M190 53v1313q0 53 54 53q53 0 53 -53v-541q94 143 352 144h78q193 0 281 -89t88 -280v-231q0 -190 -88 -279.5t-281 -89.5h-78q-258 0 -352 141v-88q0 -53 -53 -53t-54 53zM297 309q0 -98 94 -150.5t258 -52.5h78q147 0 204.5 58.5t57.5 204.5v231q0 145 -57.5 203.5 t-204.5 58.5h-78q-164 0 -258 -52t-94 -153v-338v-10z" />
<glyph unicode="c" d="M164 369v231q0 193 89 281q87 86 271 86h8h168q152 0 231 -51.5t93 -159.5q4 -25 -10.5 -40.5t-40.5 -15.5q-45 0 -55 50q-12 61 -61.5 85.5t-156.5 24.5h-168h-10q-138 0 -194 -55q-58 -57 -58 -205v-231q0 -147 58.5 -205t203.5 -58h168q106 0 155.5 25t62.5 86 q10 49 55 49q27 0 41 -15t10 -40q-14 -109 -93 -160t-231 -51h-168q-190 0 -279 89t-89 280z" />
<glyph unicode="d" horiz-adv-x="1241" d="M164 369v229q0 190 89 279.5t279 89.5h431v399q0 53 53 53t53 -53v-1313q0 -53 -53 -53t-53 53v86q-45 -70 -131.5 -104.5t-221.5 -34.5h-78q-190 0 -279 89t-89 280zM270 369q0 -147 58.5 -205t203.5 -58h78q164 0 258.5 52.5t94.5 150.5v551h-431q-147 0 -204.5 -58.5 t-57.5 -203.5v-229z" />
<glyph unicode="e" horiz-adv-x="1232" d="M164 367v231q0 193 89 282q87 87 271 87h8h168q190 0 279.5 -89.5t89.5 -279.5v-102q0 -53 -53 -54h-746v-75q0 -145 58.5 -203t203.5 -58h168q131 0 189.5 34t68.5 116q10 51 56 51q29 0 42 -14t9 -41q-14 -129 -103.5 -190.5t-261.5 -61.5h-168q-190 0 -279 88t-89 279 zM270 549h693v49q0 147 -57.5 204.5t-205.5 57.5h-168h-10q-138 0 -194 -55q-58 -57 -58 -207v-49z" />
<glyph unicode="f" horiz-adv-x="669" d="M68 913q0 53 53 54h88v90q0 188 87 275t275 87q51 0 52 -53q0 -53 -52 -53q-143 0 -199.5 -56.5t-56.5 -199.5v-90h254q54 -1 54 -54t-54 -53h-254v-807q0 -53 -53 -53t-53 53v807h-88q-53 0 -53 53z" />
<glyph unicode="g" horiz-adv-x="1241" d="M164 367v231q0 193 89 282q87 87 271 87h8h168q98 0 162 -27t101 -82v55q0 53 53 54q53 -1 53 -54v-1060q0 -135 -63.5 -199t-198.5 -64h-381q-121 0 -184.5 50.5t-73.5 156.5q-4 27 9 41.5t42 14.5q25 0 37 -13.5t18 -40.5q8 -57 42 -79.5t110 -22.5h381q90 0 123 32.5 t33 123.5v290q-96 -143 -353 -143h-78q-190 0 -279 88t-89 279zM270 367q0 -145 57.5 -203t204.5 -58h78q164 0 258.5 51.5t94.5 151.5v342q0 113 -63.5 161t-199.5 48h-168h-10q-139 0 -194 -55q-58 -57 -58 -207v-231z" />
<glyph unicode="h" horiz-adv-x="1247" d="M190 53v1313q0 53 54 53q53 0 53 -53v-522q109 125 352 125h58q192 0 280 -89t88 -280v-547q0 -53 -53 -53t-53 53v547q0 145 -57.5 203.5t-204.5 58.5h-58q-160 0 -246 -51t-102 -154q0 -6 -4 -18v-586q0 -53 -53 -53t-54 53z" />
<glyph unicode="i" horiz-adv-x="487" d="M150 1225v45q0 35 18.5 53t53.5 18h47q68 0 67 -71v-45q0 -72 -67 -72h-47q-35 0 -53.5 18.5t-18.5 53.5zM190 53v860q0 27 14.5 40.5t39.5 13.5q53 0 53 -54v-860q0 -53 -53 -53q-25 0 -39.5 13.5t-14.5 39.5z" />
<glyph unicode="j" horiz-adv-x="487" d="M-37 -356q0 24 15.5 38.5t39.5 14.5q98 0 135 37t37 135v1044q0 53 54 54q53 0 53 -54v-1044q0 -143 -67.5 -211t-211.5 -68q-25 0 -40 14.5t-15 39.5zM150 1225v45q0 35 18.5 53t53.5 18h47q68 0 67 -71v-45q0 -72 -67 -72h-47q-35 0 -53.5 18.5t-18.5 53.5z" />
<glyph unicode="k" horiz-adv-x="978" d="M190 53v1313q0 53 54 53q53 0 53 -53v-850l520 447q20 16 37 16q20 0 39 -23q16 -20 16 -34q0 -18 -22 -41l-377 -326l412 -463q16 -21 16 -37q0 -20 -23 -39q-20 -16 -34 -16q-18 0 -39 20l-414 467l-131 -114v-320q0 -53 -53 -53t-54 53z" />
<glyph unicode="l" horiz-adv-x="593" d="M190 279v1087q0 53 54 53q53 0 53 -53v-1087q0 -100 37 -136.5t137 -36.5q55 0 55 -53q0 -27 -14 -40t-39 -13q-145 0 -214 67.5t-69 211.5z" />
<glyph unicode="m" horiz-adv-x="1753" d="M190 51v862q0 53 54 54q53 0 53 -54v-79q45 72 106.5 103.5t157.5 31.5h72q109 0 173 -38t103 -124q41 86 106.5 124t174.5 38h84q164 0 235.5 -84t71.5 -277v-557q0 -53 -53 -53t-53 53v557q0 135 -47.5 194.5t-153.5 59.5h-84q-135 0 -192.5 -59.5t-57.5 -194.5v-557 q0 -53 -53 -53t-53 53v557q0 135 -47.5 194.5t-153.5 59.5h-86q-133 0 -191.5 -59.5t-58.5 -194.5v-557q0 -53 -53 -53t-54 53z" />
<glyph unicode="n" horiz-adv-x="1247" d="M190 53v860q0 53 54 54q53 0 53 -54v-98q98 152 352 152h58q192 0 280 -89.5t88 -279.5v-545q0 -53 -53 -53t-53 53v545q0 147 -57.5 204.5t-204.5 57.5h-58q-162 0 -252 -51t-98 -152q0 -10 -2 -14v-590q0 -53 -53 -53t-54 53z" />
<glyph unicode="o" horiz-adv-x="1232" d="M164 367v231q0 195 88 283q86 86 272 86h8h168q193 0 281 -88t88 -281v-229q0 -193 -88 -281t-281 -88h-168q-192 0 -280 88t-88 279zM270 367q0 -145 58.5 -203t203.5 -58h168q145 0 204 58.5t59 204.5v229q0 145 -58.5 203.5t-204.5 58.5h-168h-9q-137 0 -195 -56 q-58 -58 -58 -206v-231z" />
<glyph unicode="p" horiz-adv-x="1259" d="M190 -356v1269q0 53 54 54q53 0 53 -54v-90q96 143 352 144h78q193 0 281 -88t88 -281v-229q0 -193 -88 -281t-281 -88h-430v-356q0 -53 -53 -54q-53 0 -54 54zM297 106h430q147 0 204.5 58.5t57.5 204.5v229q0 145 -57.5 203.5t-204.5 58.5h-78q-162 0 -252 -51 t-98 -154q0 -10 -2 -14v-535z" />
<glyph unicode="q" horiz-adv-x="1241" d="M164 369v229q0 193 88 281t280 88h78q262 0 353 -144v90q0 53 53 54q53 -1 53 -54v-1269q0 -53 -53 -54q-53 0 -53 54v356h-431q-190 0 -279 89t-89 280zM270 369q0 -147 57.5 -205t204.5 -58h431v551q0 98 -94.5 150.5t-258.5 52.5h-78q-147 0 -204.5 -57.5 t-57.5 -204.5v-229z" />
<glyph unicode="r" horiz-adv-x="770" d="M190 53v860q0 53 54 54q53 0 53 -54v-163q53 104 154.5 160.5t240.5 56.5q53 -1 53 -54t-53 -53q-184 0 -284.5 -84t-108.5 -239q0 -10 -2 -15v-469q0 -53 -53 -53t-54 53z" />
<glyph unicode="s" horiz-adv-x="1142" d="M131 219q-2 27 11.5 42t39.5 15q25 0 38 -13t18 -40q8 -63 46 -88.5t117 -25.5h336q96 0 132 35.5t36 131.5t-35.5 132t-132.5 36h-329q-135 0 -200 63.5t-65 197.5q0 135 64.5 199.5t200.5 64.5h319q233 0 258 -205q2 -27 -11 -41t-40 -14q-25 0 -38 12t-19 39 q-8 57 -42 79.5t-108 22.5h-319q-90 0 -124 -33.5t-34 -123.5q0 -88 33.5 -121t124.5 -33h329q141 0 208 -67.5t67 -207.5q0 -141 -66.5 -207.5t-208.5 -66.5h-336q-125 0 -191.5 53.5t-78.5 163.5z" />
<glyph unicode="t" horiz-adv-x="731" d="M47 913q0 53 53 54h123v221q0 53 53 53t54 -53v-221h258q53 0 53 -54q0 -53 -53 -53h-258v-500q0 -143 56 -198.5t200 -55.5q55 0 55 -53t-55 -53q-188 0 -275.5 86t-87.5 274v500h-123q-53 0 -53 53z" />
<glyph unicode="u" horiz-adv-x="1247" d="M172 369v544q0 53 53 54q53 0 54 -54v-544q0 -147 57 -205t205 -58h57q162 0 252 51.5t98 151.5q0 10 2 15v589q0 53 54 54q53 -1 53 -54v-860q0 -53 -53 -53t-54 53v99q-98 -152 -352 -152h-57q-193 0 -281 89t-88 280z" />
<glyph unicode="v" horiz-adv-x="1024" d="M47 918q0 31 35 43q12 6 27 6q31 0 43 -33l348 -778l370 778q14 33 45 33q12 0 27 -6q33 -12 33 -43q0 -14 -6 -27l-406 -850q-12 -23 -27.5 -32t-37.5 -9q-45 0 -64 41l-381 852q-6 12 -6 25z" />
<glyph unicode="w" horiz-adv-x="1433" d="M47 915q0 35 39 48q16 4 23 4q31 0 43 -39l260 -758l245 743q16 43 62 43q45 0 57 -45l232 -737l272 756q12 37 45 37q14 0 23 -4q36 -15 36 -48q0 -6 -4 -22l-315 -850q-14 -43 -64 -43q-27 0 -42 10t-23 33l-223 715l-246 -715q-14 -43 -64 -43q-27 0 -40 10t-21 33 l-291 852q-4 16 -4 20z" />
<glyph unicode="x" horiz-adv-x="1011" d="M96 53q0 20 15 37l323 408l-297 381q-14 16 -14 34q0 20 22 39q16 14 35 15q23 0 41 -23l289 -371l299 371q18 23 41 23q18 0 35 -15q23 -18 22 -39q0 -12 -14 -34l-318 -392l312 -399q14 -20 14 -35q0 -20 -24 -39q-16 -14 -35 -14q-20 0 -39 23l-303 389l-305 -387 q-18 -25 -43 -25q-18 0 -33 14q-23 18 -23 39z" />
<glyph unicode="y" horiz-adv-x="1241" d="M172 -145q0 53 53 53t54 -53q0 -92 32.5 -125t122.5 -33h354q90 0 123 32.5t33 125.5v282q-57 -74 -144 -106.5t-208 -32.5h-57q-188 0 -275.5 86t-87.5 274v557q0 53 53 54q53 0 54 -54v-557q0 -143 56 -198.5t200 -55.5h57q178 0 265 63.5t87 190.5v557q0 53 53 54 q53 0 54 -54v-1060q0 -137 -63.5 -201t-199.5 -64h-354q-135 0 -198.5 63.5t-63.5 201.5z" />
<glyph unicode="z" horiz-adv-x="1054" d="M92 760q12 106 75.5 156.5t184.5 50.5h502q25 0 39 -13.5t14 -40.5t-24 -57l-604 -750h446q72 0 107.5 25t44.5 80q4 27 17 39t38 12q26 0 39.5 -14.5t11.5 -40.5q-29 -207 -258 -207h-547q-53 0 -53 53q0 27 22 56l607 751h-402q-76 0 -110.5 -22.5t-42.5 -81.5 q-6 -51 -54 -51q-29 0 -42 14t-11 41z" />
<glyph unicode="{" horiz-adv-x="667" d="M109 471v66q0 43 38 57l125 49v358q0 137 31 216t101.5 114t193.5 35q20 0 34.5 -14.5t14.5 -34.5t-14.5 -34.5t-34.5 -14.5q-94 0 -141 -21.5t-65.5 -78t-18.5 -167.5v-383q0 -43 -39 -57l-123 -47v-20l123 -45q39 -14 39 -58v-383q0 -102 18.5 -153.5t65.5 -72 t141 -20.5q20 0 34.5 -14t14.5 -35q0 -20 -14.5 -34.5t-34.5 -14.5q-121 0 -191.5 33t-102.5 107.5t-32 203.5v359l-122 47q-41 14 -41 57z" />
<glyph unicode="|" horiz-adv-x="434" d="M164 -246v1624q0 53 53 54q53 0 53 -54v-1624q0 -53 -53 -53t-53 53z" />
<glyph unicode="}" horiz-adv-x="667" d="M20 -287q0 20 14.5 34.5t35.5 14.5q94 0 141 20.5t65.5 72t18.5 153.5v383q0 43 39 58l123 45v20l-123 47q-39 14 -39 57v383q0 111 -18.5 167.5t-65.5 78t-141 21.5q-20 0 -35 14t-15 35q0 20 14.5 34.5t35.5 14.5q123 0 193.5 -35t101 -113.5t30.5 -216.5v-358l125 -49 q39 -14 39 -57v-66q0 -43 -41 -57l-123 -47v-359q0 -129 -31.5 -203.5t-102.5 -107.5t-191 -33q-21 0 -35.5 14.5t-14.5 34.5z" />
<glyph unicode="~" d="M152 582q0 14 8 28q47 78 101 110t136 32q68 0 113 -17.5t96 -50.5q41 -27 72 -40t72 -13q53 0 91 22.5t68 71.5q14 27 41 27q23 0 34 -12.5t11 -30.5q0 -16 -8 -31q-82 -141 -237 -141q-59 0 -98.5 15t-84.5 46q-43 29 -79.5 44t-90.5 15q-57 0 -89 -19.5t-68 -78.5 q-16 -23 -41 -22q-21 0 -34 13t-13 32z" />
<glyph unicode="&#xa1;" horiz-adv-x="454" d="M150 969v39q0 59 57 59h39q28 0 43.5 -15.5t15.5 -43.5v-39q0 -29 -15.5 -44.5t-43.5 -15.5h-39q-57 0 -57 60zM172 -301v1001q0 53 53 54q54 -1 54 -54v-1001q0 -53 -54 -53q-53 0 -53 53z" />
<glyph unicode="&#xa2;" horiz-adv-x="962" d="M123 469v170q0 176 82 258t258 80h8v131q0 49 49 49t49 -49v-131h9q156 0 229.5 -59.5t73.5 -186.5q0 -23 -15.5 -38t-38.5 -15t-38 15.5t-15 37.5q0 80 -42 109.5t-154 29.5h-9v-630h9q113 0 154.5 29.5t41.5 109.5q0 23 15.5 38t37.5 15q23 0 38.5 -15.5t15.5 -37.5 q0 -127 -74 -186.5t-229 -59.5h-9v-133q0 -49 -49 -49t-49 49v133h-8q-176 0 -258 81t-82 255zM229 469q0 -129 51.5 -179t182.5 -50h8v630h-8q-131 2 -182.5 -49t-51.5 -182v-170z" />
<glyph unicode="&#xa3;" horiz-adv-x="1216" d="M61 500q0 49 50 49h125v332q0 223 101 324.5t322 101.5h43q203 0 294 -91.5t91 -293.5q0 -53 -53 -54q-53 0 -53 54q0 106 -25.5 166.5t-86 86t-167.5 25.5h-43q-119 0 -187.5 -30.5t-99 -99.5t-30.5 -189v-332h371q49 0 49 -49q0 -51 -49 -51h-371v-164q0 -115 -45 -179 h778q53 0 53 -53t-53 -53h-975v106q76 0 106 42t30 137v164h-125q-49 0 -50 51z" />
<glyph unicode="&#xa4;" horiz-adv-x="1103" d="M129 334q0 25 16 37l107 108q-74 100 -74 232q0 133 74 229l-107 109q-14 14 -14 38q0 23 15.5 38.5t37.5 15.5q20 0 37 -17l107 -108q100 74 229 74q131 0 231 -76l107 110q14 14 39 15q23 0 38 -15.5t15 -38.5q0 -20 -16 -36l-107 -111q74 -100 74 -227 q0 -125 -74 -230l109 -110q14 -12 14 -37q0 -23 -15.5 -38t-37.5 -15q-20 0 -37 16l-109 109q-102 -76 -231 -76q-127 0 -229 76l-107 -109q-16 -16 -39 -16q-22 0 -37.5 15t-15.5 38zM285 711q0 -117 77.5 -196t194.5 -79t195.5 79t78.5 196q0 115 -78.5 193.5t-195.5 78.5 t-194.5 -79t-77.5 -193z" />
<glyph unicode="&#xa5;" horiz-adv-x="1107" d="M29 1266q0 27 26 41q16 10 33 10q25 0 41 -25l420 -671l430 671q18 27 43 27q14 0 31 -10q26 -18 26 -43q0 -14 -10 -31l-430 -674h203q20 0 33.5 -12t13.5 -33q0 -20 -12.5 -33.5t-34.5 -13.5h-238v-90h238q20 0 33.5 -12.5t13.5 -32.5t-12.5 -33.5t-34.5 -13.5h-238 v-234q0 -53 -53 -53t-53 53v234h-240q-20 0 -32.5 13t-12.5 34q0 20 12.5 32.5t32.5 12.5h240v90h-240q-20 0 -32.5 13.5t-12.5 33.5t12.5 32.5t32.5 12.5h207l-426 672q-10 16 -10 33z" />
<glyph unicode="&#xa6;" horiz-adv-x="434" d="M164 -246v588q0 23 15.5 38t37.5 15q23 0 38 -15t15 -38v-588q0 -23 -15 -38t-38 -15q-22 0 -37.5 15.5t-15.5 37.5zM164 797v583q0 23 15.5 38.5t37.5 15.5q23 0 38 -15.5t15 -38.5v-583q0 -23 -15 -38.5t-38 -15.5q-22 0 -37.5 15.5t-15.5 38.5z" />
<glyph unicode="&#xa7;" horiz-adv-x="1116" d="M164 672q0 195 168 237q-98 74 -99 209q0 102 61.5 154.5t180.5 52.5h201q121 0 180 -59.5t59 -180.5q0 -25 -14 -38t-39 -13q-23 0 -37 13.5t-14 37.5q0 78 -28.5 108t-106.5 30h-201q-76 0 -106.5 -24.5t-30.5 -80.5q0 -66 34 -104.5t122 -69.5l202 -72 q127 -45 181.5 -113.5t54.5 -180.5q0 -176 -131 -232q84 -37 117.5 -89t33.5 -140q0 -139 -66.5 -206t-207.5 -67h-234q-139 0 -205.5 66.5t-66.5 206.5q0 25 14.5 38t36.5 13q25 0 39 -13.5t14 -37.5q0 -96 36 -133t132 -37h234q96 0 133 36.5t37 133.5q0 49 -13.5 75.5 t-51.5 48t-119 48.5l-254 82q-137 43 -191.5 109.5t-54.5 191.5zM268 672q0 -88 34 -129t138 -74l236 -76q82 2 116.5 45t34.5 140q0 78 -35.5 120.5t-129.5 75.5l-203 72l-17 6q-98 0 -136 -39t-38 -141z" />
<glyph unicode="&#xa8;" horiz-adv-x="663" d="M130 1200v39q0 29 15 44.5t44 15.5h39q57 0 57 -60v-39q0 -59 -57 -59h-39q-29 0 -44 15.5t-15 43.5zM435 1200v39q0 29 15 44.5t44 15.5h39q57 0 57 -60v-39q0 -59 -57 -59h-39q-29 0 -44 15.5t-15 43.5z" />
<glyph unicode="&#xa9;" horiz-adv-x="1632" d="M164 657q0 188 84 337t232.5 233t334.5 84q188 0 336.5 -84t232.5 -232.5t84 -337.5q0 -186 -84 -335.5t-232 -233.5t-337 -84q-186 0 -334.5 84t-232.5 233.5t-84 335.5zM264 657q0 -160 71 -286.5t195.5 -197.5t284.5 -71t286 71t196.5 198t70.5 286q0 162 -70.5 288 t-195.5 196.5t-287 70.5q-160 0 -284.5 -70.5t-195.5 -196.5t-71 -288zM500 569v170q0 145 67.5 213t210.5 68h94q121 0 182.5 -45t65.5 -139q2 -23 -11 -37.5t-38 -14.5q-41 0 -51 47q-4 49 -37 69t-111 20h-94q-102 0 -140 -38t-38 -143v-170q0 -100 39 -138t139 -38h94 q78 0 111 19.5t37 66.5q10 47 51 47q25 0 38 -14t11 -37q-6 -94 -66.5 -138t-181.5 -44h-94q-143 0 -210.5 67.5t-67.5 208.5z" />
<glyph unicode="&#xaa;" horiz-adv-x="878" d="M109 866q0 113 54 167t169 54h336q-2 80 -38 111t-124 31h-115q-78 0 -113.5 -12.5t-48.5 -45.5q-12 -27 -22 -36t-33 -9q-27 0 -40 14.5t-7 39.5q14 78 78.5 114.5t185.5 36.5h115q135 0 199.5 -64.5t64.5 -199.5v-373q0 -51 -51 -51t-51 51v41q-68 -92 -224 -92h-112 q-113 0 -168 55.5t-55 167.5zM211 866q0 -72 24.5 -97.5t96.5 -25.5h112q103 0 163.5 29t60.5 84v131h-336q-70 0 -95.5 -24.5t-25.5 -96.5z" />
<glyph unicode="&#xab;" horiz-adv-x="1236" d="M172 602q0 18 21 35l380 315q14 10 33 11q20 0 34.5 -14.5t14.5 -35.5q0 -20 -18 -39l-332 -272l332 -272q18 -18 18 -39q0 -20 -14 -34.5t-35 -14.5q-19 0 -33 10l-380 315q-20 16 -21 35zM584 602q0 18 21 35l380 315q14 10 33 11q20 0 34.5 -14.5t14.5 -35.5 q0 -20 -18 -39l-332 -272l332 -272q18 -18 18 -39q0 -20 -14 -34.5t-35 -14.5q-19 0 -33 10l-380 315q-20 16 -21 35z" />
<glyph unicode="&#xac;" d="M150 725q0 23 13 36t34 13h757q23 0 36.5 -13t13.5 -36v-238q0 -23 -13.5 -35t-36.5 -12q-22 0 -35.5 13.5t-13.5 33.5v189h-708q-20 0 -33.5 13t-13.5 36z" />
<glyph unicode="&#xad;" horiz-adv-x="964" d="M150 553q0 20 14 34.5t37 14.5h565q20 0 34.5 -14.5t14.5 -34.5t-14.5 -34.5t-34.5 -14.5h-565q-23 0 -37 14t-14 35z" />
<glyph unicode="&#xae;" horiz-adv-x="1632" d="M164 655q0 188 84 337t232.5 232t334.5 83q188 0 336.5 -83t232.5 -231.5t84 -337.5q0 -188 -84 -336.5t-232 -231.5t-337 -83q-186 0 -334.5 83t-232.5 231.5t-84 336.5zM264 655q0 -160 71 -285.5t195.5 -196.5t284.5 -71t286 71t196.5 197t70.5 285q0 160 -70.5 286 t-196.5 196.5t-286 70.5t-284.5 -70.5t-195.5 -196.5t-71 -286zM584 367v600q0 49 49 49h225q96 0 149.5 -52.5t53.5 -148.5v-31q0 -74 -31 -122t-86 -68l111 -207q8 -14 8 -27q0 -23 -29 -38q-20 -8 -26 -9q-25 0 -41 29l-127 240h-158v-215q0 -49 -49 -50q-49 1 -49 50z M682 680h176q55 0 79 23.5t24 80.5v31q0 55 -24 79t-79 24h-176v-238z" />
<glyph unicode="&#xaf;" horiz-adv-x="829" d="M102 1239q0 53 54 53h518q53 0 53 -53t-53 -53h-518q-54 0 -54 53z" />
<glyph unicode="&#xb0;" horiz-adv-x="569" d="M102 1069v148q0 78 42 118.5t118 40.5h47q76 0 117 -41t41 -118v-148q0 -78 -41 -119t-117 -41h-47q-76 0 -118 42t-42 118zM195 1069q0 -37 15 -51t52 -14h47q37 0 51.5 14t14.5 51v148q0 37 -14.5 51t-51.5 14h-47q-37 0 -52 -14.5t-15 -50.5v-148z" />
<glyph unicode="&#xb1;" d="M150 317q0 49 51 50h747q49 -1 49 -50t-49 -49h-747q-51 0 -51 49zM150 745q0 49 51 50h299v221q0 23 14 36t35 13q23 0 37 -13.5t14 -35.5v-221h348q49 0 49 -50q0 -49 -49 -49h-348v-229q0 -23 -14.5 -36t-36.5 -13q-20 0 -34.5 14t-14.5 35v229h-299q-51 0 -51 49z " />
<glyph unicode="&#xb2;" horiz-adv-x="731" d="M117 1178q25 137 186 137h103q188 0 188 -187q0 -57 -26.5 -97t-61.5 -63.5t-109 -66.5q-82 -49 -115.5 -76.5t-43.5 -76.5h317q51 0 51 -54q0 -51 -51 -51h-375q-25 0 -39 13.5t-14 37.5q0 80 30.5 135.5t72.5 87t116 72.5q92 55 117.5 78t25.5 61q0 51 -16 67.5 t-67 16.5h-103q-37 0 -55.5 -9t-24.5 -32q-14 -27 -24.5 -37t-32.5 -10q-27 0 -40 14.5t-9 39.5z" />
<glyph unicode="&#xb3;" horiz-adv-x="667" d="M109 788q-4 25 9 39.5t40 14.5q23 0 33 -9.5t22 -37.5q6 -27 26.5 -37t63.5 -10h109q57 0 76.5 19t19.5 75q0 59 -18.5 77.5t-77.5 18.5h-64q-51 0 -51 51t51 51h58q47 0 67.5 22.5t20.5 63.5q0 53 -16.5 69.5t-69.5 16.5h-101q-39 0 -57.5 -8t-24.5 -30 q-10 -25 -21 -36.5t-34 -11.5q-29 0 -41 14.5t-8 41.5q23 135 186 135h101q190 0 190 -184q0 -80 -63 -119q77 -45 77 -172q0 -100 -49 -148.5t-151 -48.5h-109q-86 0 -134 35t-60 108z" />
<glyph unicode="&#xb4;" horiz-adv-x="483" d="M100 1108q0 16 13 35l176 209q18 20 39 20q18 0 32 -14q20 -18 21 -37q0 -16 -12 -35l-176 -209q-18 -20 -39 -20q-18 0 -33 14q-21 19 -21 37z" />
<glyph unicode="&#xb5;" horiz-adv-x="1282" d="M172 -135v1048q0 53 53 54q53 0 54 -54v-544q0 -145 58 -204t204 -59h57q164 0 258 51.5t94 153.5v602q0 53 54 54q53 0 53 -54v-671q0 -72 21.5 -101.5t82.5 -34.5q53 -2 53 -53q0 -53 -51 -53q-76 0 -125 38t-71 105q-53 -70 -146.5 -106.5t-222.5 -36.5h-57 q-190 0 -262 131v-260q0 -59 -54 -59q-53 0 -53 53z" />
<glyph unicode="&#xb6;" horiz-adv-x="1093" d="M70 926v59q0 168 86 254t256 86h442q49 0 49 -49v-1610q0 -20 -14.5 -34.5t-34.5 -14.5q-23 0 -37 14.5t-14 34.5v1561h-166v-1561q0 -20 -14.5 -34.5t-34.5 -14.5q-23 0 -37 14.5t-14 34.5v922h-125q-170 0 -256 85t-86 253z" />
<glyph unicode="&#xb7;" horiz-adv-x="454" d="M150 571v39q0 29 15 44.5t44 15.5h39q57 0 57 -60v-39q0 -59 -57 -59h-39q-29 0 -44 15.5t-15 43.5z" />
<glyph unicode="&#xb8;" horiz-adv-x="600" d="M102 -240q0 49 50 50q51 0 51 -50q0 -47 15 -62t61 -15q70 0 94 24.5t24 93.5q0 20 -9 32.5t-42 35.5q-45 33 -71.5 66.5t-26.5 95.5q0 49 49 49q51 0 51 -49q0 -27 10.5 -42.5t42.5 -35.5q43 -29 70 -61.5t27 -90.5q0 -113 -53.5 -165t-165.5 -52q-177 0 -177 176z" />
<glyph unicode="&#xb9;" horiz-adv-x="561" d="M150 1102q0 16 16 37l158 151q16 16 30.5 22.5t36.5 6.5q47 0 47 -47v-576q0 -25 -13 -39t-40 -14t-40 14.5t-13 38.5v457l-90 -90q-18 -18 -37 -19q-20 0 -39 19q-16 20 -16 39z" />
<glyph unicode="&#xba;" horiz-adv-x="858" d="M96 909v146q0 139 64.5 203.5t201.5 62.5h136q135 0 200.5 -64.5t65.5 -201.5v-144q0 -137 -65.5 -202.5t-200.5 -65.5h-136q-137 0 -201.5 64.5t-64.5 201.5zM203 909q0 -90 33.5 -124.5t125.5 -34.5h136q90 0 124.5 34.5t34.5 126.5v144q0 92 -34.5 125.5t-124.5 33.5 h-136q-92 2 -125.5 -31.5t-33.5 -127.5v-146z" />
<glyph unicode="&#xbb;" horiz-adv-x="1236" d="M170 291q0 20 18 39l332 272l-332 272q-18 18 -18 39q0 20 14.5 35t34.5 15q18 0 33 -11l381 -315q20 -14 20 -35q0 -20 -20 -35l-381 -315q-14 -10 -33 -10q-20 0 -34.5 14t-14.5 35zM582 291q0 20 18 39l332 272l-332 272q-18 18 -18 39q0 20 14.5 35t34.5 15 q18 0 33 -11l381 -315q20 -14 20 -35q0 -20 -20 -35l-381 -315q-14 -10 -33 -10q-20 0 -34.5 14t-14.5 35z" />
<glyph unicode="&#xbc;" horiz-adv-x="1509" d="M150 1102q0 16 16 37l158 151q16 16 30.5 22.5t36.5 6.5q47 0 47 -47v-576q0 -25 -13 -39t-40 -14t-40 14.5t-13 38.5v457l-90 -90q-18 -18 -37 -19q-20 0 -39 19q-16 20 -16 39zM227 45q0 16 10 33l945 1249q16 23 43 23q23 0 38 -15.5t15 -38.5q0 -10 -4 -19t-6 -13 l-945 -1250q-16 -23 -43 -22q-22 0 -37.5 15.5t-15.5 37.5zM811 188q0 31 22 56l318 403q14 18 28.5 25.5t34.5 7.5q49 0 49 -53l-2 -387h60q51 -1 51 -52q0 -53 -51 -53h-62v-80q0 -51 -53 -51q-51 0 -51 51v80h-291q-53 0 -53 53zM950 240h207l2 264z" />
<glyph unicode="&#xbd;" horiz-adv-x="1540" d="M150 1102q0 16 16 37l158 151q16 16 30.5 22.5t36.5 6.5q47 0 47 -47v-576q0 -25 -13 -39t-40 -14t-40 14.5t-13 38.5v457l-90 -90q-18 -18 -37 -19q-20 0 -39 19q-16 20 -16 39zM227 45q0 16 10 33l945 1249q16 23 43 23q23 0 38 -15.5t15 -38.5q0 -10 -4 -19t-6 -13 l-945 -1250q-16 -23 -43 -22q-22 0 -37.5 15.5t-15.5 37.5zM928 535q25 137 186 137h103q188 0 188 -187q0 -57 -26.5 -97t-61.5 -63.5t-109 -66.5q-82 -49 -115.5 -76.5t-43.5 -76.5h317q51 0 51 -54q0 -51 -51 -51h-375q-25 0 -39 13.5t-14 37.5q0 80 30.5 135.5t72.5 87 t116 72.5q92 55 117.5 78t25.5 61q0 51 -16 67.5t-67 16.5h-103q-37 0 -55.5 -9t-24.5 -32q-14 -27 -24.5 -37t-32.5 -10q-27 0 -40 14.5t-9 39.5z" />
<glyph unicode="&#xbe;" horiz-adv-x="1613" d="M109 788q-4 25 9 39.5t40 14.5q23 0 33 -9.5t22 -37.5q6 -27 26.5 -37t63.5 -10h109q57 0 76.5 19t19.5 75q0 59 -18.5 77.5t-77.5 18.5h-64q-51 0 -51 51t51 51h58q47 0 67.5 22.5t20.5 63.5q0 53 -16.5 69.5t-69.5 16.5h-101q-39 0 -57.5 -8t-24.5 -30 q-10 -25 -21 -36.5t-34 -11.5q-29 0 -41 14.5t-8 41.5q23 135 186 135h101q190 0 190 -184q0 -80 -63 -119q77 -45 77 -172q0 -100 -49 -148.5t-151 -48.5h-109q-86 0 -134 35t-60 108zM334 45q0 16 10 33l945 1249q16 23 43 23q23 0 38 -15.5t15 -38.5q0 -10 -4 -19t-6 -13 l-945 -1250q-16 -23 -43 -22q-22 0 -37.5 15.5t-15.5 37.5zM916 188q0 31 22 56l318 403q14 18 28.5 25.5t34.5 7.5q49 0 49 -53l-2 -387h60q51 -1 51 -52q0 -53 -51 -53h-62v-80q0 -51 -53 -51q-51 0 -51 51v80h-291q-53 0 -53 53zM1055 240h207l2 264z" />
<glyph unicode="&#xbf;" horiz-adv-x="976" d="M123 84q0 102 29.5 171t71.5 106.5t106 78.5q57 37 88 66t49 76t18 125q0 53 54 53q53 0 53 -53q0 -102 -30 -171t-71.5 -107t-105.5 -79q-57 -37 -88 -65.5t-49.5 -75.5t-18.5 -125q0 -133 53.5 -186.5t186.5 -53.5h137q133 0 186.5 53.5t53.5 186.5q0 53 53 53t53 -53 q0 -178 -84 -262t-262 -84h-137q-180 0 -263 83t-83 263zM459 946v39q0 59 57 59h39q29 0 44 -15t15 -44v-39q0 -29 -15 -44t-44 -15h-39q-57 0 -57 59z" />
<glyph unicode="&#xc0;" horiz-adv-x="1255" d="M53 51q0 16 4 25l508 1202q16 41 62 41h4q41 0 59 -41l508 -1202q6 -15 6 -27q0 -27 -35 -43q-12 -6 -26 -6q-29 0 -41 33l-137 323h-7h-663l-137 -323q-14 -33 -45 -33q-10 0 -27 6q-33 12 -33 45zM338 463h582l-291 688zM434 1687q0 18 21 37q14 14 32 14q20 0 39 -20 l176 -209q12 -18 13 -35q0 -18 -21 -37q-15 -14 -33 -14q-20 0 -39 21l-176 208q-12 18 -12 35z" />
<glyph unicode="&#xc1;" horiz-adv-x="1255" d="M53 51q0 16 4 25l508 1202q16 41 62 41h4q41 0 59 -41l508 -1202q6 -15 6 -27q0 -27 -35 -43q-12 -6 -26 -6q-29 0 -41 33l-137 323h-7h-663l-137 -323q-14 -33 -45 -33q-10 0 -27 6q-33 12 -33 45zM338 463h582l-291 688zM586 1475q0 16 12 35l176 208q18 20 39 21 q18 0 33 -14q20 -18 21 -37q0 -16 -13 -35l-176 -209q-18 -20 -39 -20q-18 0 -32 14q-21 19 -21 37z" />
<glyph unicode="&#xc2;" horiz-adv-x="1255" d="M53 51q0 16 4 25l508 1202q16 41 62 41h4q41 0 59 -41l508 -1202q6 -15 6 -27q0 -27 -35 -43q-12 -6 -26 -6q-29 0 -41 33l-137 323h-7h-663l-137 -323q-14 -33 -45 -33q-10 0 -27 6q-33 12 -33 45zM326 1491q0 25 20 41l203 170q29 23 63 22h25q35 0 63 -22l203 -170 q20 -16 21 -41q0 -20 -15.5 -35.5t-36.5 -15.5q-20 0 -34 14l-203 168h-21l-202 -168q-14 -14 -35 -14q-23 0 -37 15t-14 36zM338 463h582l-291 688z" />
<glyph unicode="&#xc3;" horiz-adv-x="1255" d="M53 51q0 16 4 25l508 1202q16 41 62 41h4q41 0 59 -41l508 -1202q6 -15 6 -27q0 -27 -35 -43q-12 -6 -26 -6q-29 0 -41 33l-137 323h-7h-663l-137 -323q-14 -33 -45 -33q-10 0 -27 6q-33 12 -33 45zM325 1534q0 6 4 18q29 82 72 119t113 37q55 0 90 -21.5t71 -58.5 q27 -27 42.5 -36t37.5 -9q33 0 53.5 19.5t34.5 64.5q14 41 54 35q20 -2 31.5 -14.5t11.5 -30.5q0 -10 -2 -17q-29 -78 -73 -116.5t-110 -38.5q-51 0 -83.5 20.5t-67.5 54.5q-29 29 -46.5 39t-43.5 10q-35 0 -54.5 -18t-38.5 -68q-12 -41 -53 -34q-20 2 -31.5 14t-11.5 31z M338 463h582l-291 688z" />
<glyph unicode="&#xc4;" horiz-adv-x="1255" d="M53 51q0 16 4 25l508 1202q16 41 62 41h4q41 0 59 -41l508 -1202q6 -15 6 -27q0 -27 -35 -43q-12 -6 -26 -6q-29 0 -41 33l-137 323h-7h-663l-137 -323q-14 -33 -45 -33q-10 0 -27 6q-33 12 -33 45zM338 463h582l-291 688zM400 1552v39q0 29 15 44.5t44 15.5h39 q57 0 57 -60v-39q0 -59 -57 -59h-39q-29 0 -44 15.5t-15 43.5zM705 1552v39q0 29 15 44.5t44 15.5h39q57 0 57 -60v-39q0 -59 -57 -59h-39q-29 0 -44 15.5t-15 43.5z" />
<glyph unicode="&#xc5;" horiz-adv-x="1255" d="M53 51q0 16 4 25l508 1202q16 41 62 41h4q41 0 59 -41l508 -1202q6 -15 6 -27q0 -27 -35 -43q-12 -6 -26 -6q-29 0 -41 33l-137 323h-7h-663l-137 -323q-14 -33 -45 -33q-10 0 -27 6q-33 12 -33 45zM338 463h582l-291 688zM465 1595q0 76 41 117t115 41q76 0 117 -41 t41 -117q0 -74 -41 -115t-117 -41q-74 0 -115 41t-41 115zM559 1595q0 -37 13.5 -49t48.5 -12q37 0 50 13t13 48q0 39 -13 51.5t-50 12.5t-49.5 -13.5t-12.5 -50.5z" />
<glyph unicode="&#xc6;" horiz-adv-x="1693" d="M53 53q0 14 8 29l680 1198q18 39 62 39h756q53 0 53 -53t-53 -54h-617v-491h375q53 0 53 -53t-53 -54h-375v-508h617q53 0 53 -53t-53 -53h-670q-53 0 -53 53v303l-494 2l-186 -329q-18 -31 -43 -31q-14 0 -31 10q-29 18 -29 45zM401 463h435v737h-23z" />
<glyph unicode="&#xc7;" horiz-adv-x="1361" d="M164 426v467q0 223 101.5 324.5t322.5 101.5h248q188 0 280 -79t103 -253q4 -53 -54 -53q-49 0 -53 53q-8 125 -69.5 175t-206.5 50h-248q-119 0 -187.5 -30.5t-99.5 -99t-31 -189.5v-467q0 -121 31 -189.5t99.5 -99.5t189.5 -31h246q145 0 206.5 49.5t69.5 176.5 q4 53 53 53q58 0 54 -55q-10 -174 -102.5 -252t-280.5 -78h-19q8 -20 49 -47q43 -29 70 -61.5t27 -90.5q0 -113 -53.5 -165t-166.5 -52q-176 0 -176 176q0 49 49 50q51 0 52 -50q0 -47 15 -62t60 -15q70 0 94.5 24.5t24.5 93.5q0 20 -9 32.5t-42 35.5q-37 27 -62.5 54.5 t-33.5 76.5h-125q-221 0 -323.5 102.5t-102.5 323.5z" />
<glyph unicode="&#xc8;" d="M190 53v1213q0 53 54 53h768q53 0 53 -53t-53 -54h-715v-491h473q53 0 53 -53t-53 -54h-473v-508h715q53 0 53 -53t-53 -53h-768q-53 0 -54 53zM469 1687q0 18 21 37q14 14 32 14q20 0 39 -20l176 -209q12 -18 13 -35q0 -18 -21 -37q-15 -14 -33 -14q-20 0 -39 21 l-176 208q-12 18 -12 35z" />
<glyph unicode="&#xc9;" d="M190 53v1213q0 53 54 53h768q53 0 53 -53t-53 -54h-715v-491h473q53 0 53 -53t-53 -54h-473v-508h715q53 0 53 -53t-53 -53h-768q-53 0 -54 53zM590 1482q0 16 12 35l176 209q18 20 39 21q18 0 33 -15q20 -18 21 -37q0 -16 -13 -34l-176 -209q-18 -20 -39 -21 q-18 0 -32 15q-21 18 -21 36z" />
<glyph unicode="&#xca;" d="M190 53v1213q0 53 54 53h768q53 0 53 -53t-53 -54h-715v-491h473q53 0 53 -53t-53 -54h-473v-508h715q53 0 53 -53t-53 -53h-768q-53 0 -54 53zM361 1491q0 25 20 41l203 170q29 23 63 22h25q35 0 63 -22l203 -170q20 -16 21 -41q0 -20 -15.5 -35.5t-36.5 -15.5 q-20 0 -34 14l-203 168h-21l-202 -168q-14 -14 -35 -14q-23 0 -37 15t-14 36z" />
<glyph unicode="&#xcb;" d="M190 53v1213q0 53 54 53h768q53 0 53 -53t-53 -54h-715v-491h473q53 0 53 -53t-53 -54h-473v-508h715q53 0 53 -53t-53 -53h-768q-53 0 -54 53zM435 1552v39q0 29 15 44.5t44 15.5h39q57 0 57 -60v-39q0 -59 -57 -59h-39q-29 0 -44 15.5t-15 43.5zM740 1552v39 q0 29 15 44.5t44 15.5h39q57 0 57 -60v-39q0 -59 -57 -59h-39q-29 0 -44 15.5t-15 43.5z" />
<glyph unicode="&#xcc;" horiz-adv-x="487" d="M49 1687q0 18 21 37q14 14 32 14q20 0 39 -20l176 -209q12 -18 13 -35q0 -18 -21 -37q-15 -14 -33 -14q-20 0 -39 21l-176 208q-12 18 -12 35zM190 53v1213q0 25 14.5 39t39.5 14t39 -14.5t14 -38.5v-1213q0 -25 -14.5 -39t-38.5 -14q-25 0 -39.5 14.5t-14.5 38.5z" />
<glyph unicode="&#xcd;" horiz-adv-x="487" d="M170 1482q0 16 12 35l176 209q18 20 39 21q18 0 33 -15q20 -18 21 -37q0 -16 -13 -34l-176 -209q-18 -20 -39 -21q-18 0 -32 15q-21 18 -21 36zM190 53v1213q0 25 14.5 39t39.5 14t39 -14.5t14 -38.5v-1213q0 -25 -14.5 -39t-38.5 -14q-25 0 -39.5 14.5t-14.5 38.5z" />
<glyph unicode="&#xce;" horiz-adv-x="487" d="M2 1485q0 16 10 30l158 199q27 29 62 29h30q37 0 60 -29l157 -199q12 -16 13 -30q0 -20 -15.5 -36t-36.5 -16q-25 0 -39 21l-147 190h-14l-150 -190q-14 -20 -39 -21q-20 0 -34.5 15.5t-14.5 36.5zM190 53v1213q0 25 14.5 39t39.5 14t39 -14.5t14 -38.5v-1213 q0 -25 -14.5 -39t-38.5 -14q-25 0 -39.5 14.5t-14.5 38.5z" />
<glyph unicode="&#xcf;" horiz-adv-x="487" d="M15 1552v39q0 29 15 44.5t44 15.5h39q57 0 57 -60v-39q0 -59 -57 -59h-39q-29 0 -44 15.5t-15 43.5zM190 53v1213q0 25 14.5 39t39.5 14t39 -14.5t14 -38.5v-1213q0 -25 -14.5 -39t-38.5 -14q-25 0 -39.5 14.5t-14.5 38.5zM320 1552v39q0 29 15 44.5t44 15.5h39 q57 0 57 -60v-39q0 -59 -57 -59h-39q-29 0 -44 15.5t-15 43.5z" />
<glyph unicode="&#xd0;" horiz-adv-x="1388" d="M14 666q0 49 49 49h127v551q0 53 54 53h493q254 0 371 -117t117 -371v-344q0 -254 -116 -370.5t-372 -116.5h-493q-53 0 -54 53v563h-127q-49 0 -49 50zM297 106h440q141 0 224 37t120 120t37 224v344q0 141 -37 224.5t-119.5 120t-224.5 36.5h-440v-497h297q51 0 51 -49 t-51 -50h-297v-510z" />
<glyph unicode="&#xd1;" horiz-adv-x="1439" d="M190 53v1213q0 53 54 53q31 0 55 -31l844 -1085v1063q0 53 53 53t53 -53v-1213q0 -53 -53 -53q-29 0 -53 31l-846 1087v-1065q0 -53 -53 -53t-54 53zM430 1534q0 6 4 18q29 82 72 119t113 37q55 0 90 -21.5t71 -58.5q27 -27 42.5 -36t37.5 -9q33 0 53.5 19.5t34.5 64.5 q14 41 54 35q20 -2 31.5 -14.5t11.5 -30.5q0 -10 -2 -17q-29 -78 -73 -116.5t-110 -38.5q-51 0 -83.5 20.5t-67.5 54.5q-29 29 -46.5 39t-43.5 10q-35 0 -54.5 -18t-38.5 -68q-12 -41 -53 -34q-20 2 -31.5 14t-11.5 31z" />
<glyph unicode="&#xd2;" horiz-adv-x="1425" d="M164 426v467q0 223 102.5 325.5t321.5 100.5h248q223 0 324.5 -102.5t101.5 -323.5v-467q0 -223 -101.5 -324.5t-324.5 -101.5h-246q-223 0 -324.5 101.5t-101.5 324.5zM270 426q0 -176 72 -248t248 -72h246q176 0 247.5 72t71.5 248v467q0 176 -71.5 247.5t-247.5 71.5 h-248q-119 2 -187.5 -28.5t-99.5 -100t-31 -190.5v-467zM518 1687q0 18 21 37q14 14 32 14q20 0 39 -20l176 -209q12 -18 13 -35q0 -18 -21 -37q-15 -14 -33 -14q-20 0 -39 21l-176 208q-12 18 -12 35z" />
<glyph unicode="&#xd3;" horiz-adv-x="1425" d="M164 426v467q0 223 102.5 325.5t321.5 100.5h248q223 0 324.5 -102.5t101.5 -323.5v-467q0 -223 -101.5 -324.5t-324.5 -101.5h-246q-223 0 -324.5 101.5t-101.5 324.5zM270 426q0 -176 72 -248t248 -72h246q176 0 247.5 72t71.5 248v467q0 176 -71.5 247.5t-247.5 71.5 h-248q-119 2 -187.5 -28.5t-99.5 -100t-31 -190.5v-467zM639 1482q0 16 12 35l176 209q18 20 39 21q18 0 33 -15q20 -18 21 -37q0 -16 -13 -34l-176 -209q-18 -20 -39 -21q-18 0 -32 15q-21 18 -21 36z" />
<glyph unicode="&#xd4;" horiz-adv-x="1425" d="M164 426v467q0 223 102.5 325.5t321.5 100.5h248q223 0 324.5 -102.5t101.5 -323.5v-467q0 -223 -101.5 -324.5t-324.5 -101.5h-246q-223 0 -324.5 101.5t-101.5 324.5zM270 426q0 -176 72 -248t248 -72h246q176 0 247.5 72t71.5 248v467q0 176 -71.5 247.5t-247.5 71.5 h-248q-119 2 -187.5 -28.5t-99.5 -100t-31 -190.5v-467zM410 1491q0 25 20 41l203 170q29 23 63 22h25q35 0 63 -22l203 -170q20 -16 21 -41q0 -20 -15.5 -35.5t-36.5 -15.5q-20 0 -34 14l-203 168h-21l-202 -168q-14 -14 -35 -14q-23 0 -37 15t-14 36z" />
<glyph unicode="&#xd5;" horiz-adv-x="1425" d="M164 426v467q0 223 102.5 325.5t321.5 100.5h248q223 0 324.5 -102.5t101.5 -323.5v-467q0 -223 -101.5 -324.5t-324.5 -101.5h-246q-223 0 -324.5 101.5t-101.5 324.5zM270 426q0 -176 72 -248t248 -72h246q176 0 247.5 72t71.5 248v467q0 176 -71.5 247.5t-247.5 71.5 h-248q-119 2 -187.5 -28.5t-99.5 -100t-31 -190.5v-467zM409 1534q0 6 4 18q29 82 72 119t113 37q55 0 90 -21.5t71 -58.5q27 -27 42.5 -36t37.5 -9q33 0 53.5 19.5t34.5 64.5q14 41 54 35q20 -2 31.5 -14.5t11.5 -30.5q0 -10 -2 -17q-29 -78 -73 -116.5t-110 -38.5 q-51 0 -83.5 20.5t-67.5 54.5q-29 29 -46.5 39t-43.5 10q-35 0 -54.5 -18t-38.5 -68q-12 -41 -53 -34q-20 2 -31.5 14t-11.5 31z" />
<glyph unicode="&#xd6;" horiz-adv-x="1425" d="M164 426v467q0 223 102.5 325.5t321.5 100.5h248q223 0 324.5 -102.5t101.5 -323.5v-467q0 -223 -101.5 -324.5t-324.5 -101.5h-246q-223 0 -324.5 101.5t-101.5 324.5zM270 426q0 -176 72 -248t248 -72h246q176 0 247.5 72t71.5 248v467q0 176 -71.5 247.5t-247.5 71.5 h-248q-119 2 -187.5 -28.5t-99.5 -100t-31 -190.5v-467zM484 1552v39q0 29 15 44.5t44 15.5h39q57 0 57 -60v-39q0 -59 -57 -59h-39q-29 0 -44 15.5t-15 43.5zM789 1552v39q0 29 15 44.5t44 15.5h39q57 0 57 -60v-39q0 -59 -57 -59h-39q-29 0 -44 15.5t-15 43.5z" />
<glyph unicode="&#xd7;" d="M240 383q0 18 16 35l250 250l-213 213q-18 18 -19 39q0 16 17 32q20 16 35 17q18 0 36 -19l213 -213l209 209q18 18 39 19q16 0 33 -17q16 -20 16 -35q0 -18 -18 -36l-209 -209l246 -246q16 -15 16 -35q0 -18 -16 -35q-16 -16 -35 -16q-14 0 -35 16l-246 246l-249 -250 q-16 -16 -35 -16q-14 0 -35 16q-16 20 -16 35z" />
<glyph unicode="&#xd8;" horiz-adv-x="1425" d="M164 426v467q0 223 102.5 325.5t321.5 100.5h248q115 0 194 -27l62 103q18 27 41 26q14 0 30 -10q29 -18 29 -41q0 -14 -10 -31l-58 -92q138 -98 138 -354v-467q0 -223 -101.5 -324.5t-324.5 -101.5h-246q-123 0 -207 31l-59 -97q-14 -27 -39 -26q-12 0 -33 10 q-27 18 -27 41q0 14 11 31l55 90q-66 51 -96.5 136t-30.5 210zM270 426q0 -180 76 -254l627 1026q-55 14 -137 14h-248q-119 2 -187.5 -28.5t-99.5 -100t-31 -190.5v-467zM438 123q70 -16 152 -17h246q176 0 247.5 72t71.5 248v467q0 98 -20.5 161.5t-65.5 100.5z" />
<glyph unicode="&#xd9;" horiz-adv-x="1437" d="M170 426v840q0 23 15.5 38t37.5 15q25 0 39 -15.5t14 -37.5v-840q0 -176 72 -248t248 -72h246q121 0 189.5 31t99 100.5t30.5 188.5v840q0 23 15.5 38t37.5 15q25 0 39.5 -15.5t14.5 -37.5v-840q0 -223 -101.5 -324.5t-324.5 -101.5h-246q-221 0 -323.5 101.5 t-102.5 324.5zM524 1687q0 18 21 37q14 14 32 14q20 0 39 -20l176 -209q12 -18 13 -35q0 -18 -21 -37q-15 -14 -33 -14q-20 0 -39 21l-176 208q-12 18 -12 35z" />
<glyph unicode="&#xda;" horiz-adv-x="1437" d="M170 426v840q0 23 15.5 38t37.5 15q25 0 39 -15.5t14 -37.5v-840q0 -176 72 -248t248 -72h246q121 0 189.5 31t99 100.5t30.5 188.5v840q0 23 15.5 38t37.5 15q25 0 39.5 -15.5t14.5 -37.5v-840q0 -223 -101.5 -324.5t-324.5 -101.5h-246q-221 0 -323.5 101.5 t-102.5 324.5zM645 1482q0 16 12 35l176 209q18 20 39 21q18 0 33 -15q20 -18 21 -37q0 -16 -13 -34l-176 -209q-18 -20 -39 -21q-18 0 -32 15q-21 18 -21 36z" />
<glyph unicode="&#xdb;" horiz-adv-x="1437" d="M170 426v840q0 23 15.5 38t37.5 15q25 0 39 -15.5t14 -37.5v-840q0 -176 72 -248t248 -72h246q121 0 189.5 31t99 100.5t30.5 188.5v840q0 23 15.5 38t37.5 15q25 0 39.5 -15.5t14.5 -37.5v-840q0 -223 -101.5 -324.5t-324.5 -101.5h-246q-221 0 -323.5 101.5 t-102.5 324.5zM416 1491q0 25 20 41l203 170q29 23 63 22h25q35 0 63 -22l203 -170q20 -16 21 -41q0 -20 -15.5 -35.5t-36.5 -15.5q-20 0 -34 14l-203 168h-21l-202 -168q-14 -14 -35 -14q-23 0 -37 15t-14 36z" />
<glyph unicode="&#xdc;" horiz-adv-x="1437" d="M170 426v840q0 23 15.5 38t37.5 15q25 0 39 -15.5t14 -37.5v-840q0 -176 72 -248t248 -72h246q121 0 189.5 31t99 100.5t30.5 188.5v840q0 23 15.5 38t37.5 15q25 0 39.5 -15.5t14.5 -37.5v-840q0 -223 -101.5 -324.5t-324.5 -101.5h-246q-221 0 -323.5 101.5 t-102.5 324.5zM490 1552v39q0 29 15 44.5t44 15.5h39q57 0 57 -60v-39q0 -59 -57 -59h-39q-29 0 -44 15.5t-15 43.5zM795 1552v39q0 29 15 44.5t44 15.5h39q57 0 57 -60v-39q0 -59 -57 -59h-39q-29 0 -44 15.5t-15 43.5z" />
<glyph unicode="&#xdd;" horiz-adv-x="1103" d="M27 1266q0 25 28 43q16 10 31 10q25 0 43 -29l420 -665l426 667q16 25 41 25q16 0 33 -10q26 -14 26 -39q0 -16 -10 -33l-463 -725v-457q0 -53 -53 -53t-53 53v457l-459 725q-10 16 -10 31zM479 1482q0 16 12 35l176 209q18 20 39 21q18 0 33 -15q20 -18 21 -37 q0 -16 -13 -34l-176 -209q-18 -20 -39 -21q-18 0 -32 15q-21 18 -21 36z" />
<glyph unicode="&#xde;" horiz-adv-x="1048" d="M190 53v1213q0 53 54 53q53 0 53 -53v-138h328q176 0 265 -89t89 -265v-61q0 -174 -90 -264.5t-264 -90.5h-328v-305q0 -53 -53 -53t-54 53zM297 465h328q131 0 189 59.5t58 188.5v61q0 131 -58 189.5t-189 58.5h-328v-557z" />
<glyph unicode="&#xdf;" horiz-adv-x="1093" d="M190 55v1018q0 180 84 263t263 83q178 0 261 -83t83 -261q0 -188 -136 -268q135 -29 197 -109t62 -225v-106q0 -190 -87.5 -277.5t-277.5 -87.5h-125q-53 0 -53 53t53 54h125q145 0 201.5 56t56.5 202v106q0 145 -56.5 201.5t-201.5 56.5h-49q-53 0 -53 55q0 49 53 56 q102 8 143 61t41 172q0 133 -52 185.5t-185 52.5t-186.5 -52.5t-53.5 -187.5v-1018q0 -53 -53 -53q-54 0 -54 53z" />
<glyph unicode="&#xe0;" horiz-adv-x="1202" d="M150 307q0 160 74.5 234.5t232.5 74.5h467q-4 135 -61.5 189.5t-200.5 54.5h-119q-131 0 -190.5 -27.5t-73.5 -95.5q-8 -27 -20.5 -38t-35.5 -11q-29 0 -42 14.5t-11 40.5q14 117 105.5 170.5t267.5 53.5h119q192 0 280 -88t88 -281v-545q0 -53 -53 -53t-53 53v101 q-49 -76 -138.5 -115t-214.5 -39h-114q-158 0 -232.5 73.5t-74.5 233.5zM256 307q0 -113 44 -157t157 -44h114q317 0 349 205l4 17v182h-467q-115 0 -158 -44t-43 -159zM399 1335q0 18 21 37q14 14 32 14q20 0 39 -20l176 -209q12 -18 13 -35q0 -18 -21 -37q-15 -14 -33 -14 q-20 0 -39 21l-176 208q-12 18 -12 35z" />
<glyph unicode="&#xe1;" horiz-adv-x="1202" d="M150 307q0 160 74.5 234.5t232.5 74.5h467q-4 135 -61.5 189.5t-200.5 54.5h-119q-131 0 -190.5 -27.5t-73.5 -95.5q-8 -27 -20.5 -38t-35.5 -11q-29 0 -42 14.5t-11 40.5q14 117 105.5 170.5t267.5 53.5h119q192 0 280 -88t88 -281v-545q0 -53 -53 -53t-53 53v101 q-49 -76 -138.5 -115t-214.5 -39h-114q-158 0 -232.5 73.5t-74.5 233.5zM256 307q0 -113 44 -157t157 -44h114q317 0 349 205l4 17v182h-467q-115 0 -158 -44t-43 -159zM520 1130q0 16 12 35l176 209q18 20 39 21q18 0 33 -15q20 -18 21 -37q0 -16 -13 -34l-176 -209 q-18 -20 -39 -21q-18 0 -32 15q-21 18 -21 36z" />
<glyph unicode="&#xe2;" horiz-adv-x="1202" d="M150 307q0 160 74.5 234.5t232.5 74.5h467q-4 135 -61.5 189.5t-200.5 54.5h-119q-131 0 -190.5 -27.5t-73.5 -95.5q-8 -27 -20.5 -38t-35.5 -11q-29 0 -42 14.5t-11 40.5q14 117 105.5 170.5t267.5 53.5h119q192 0 280 -88t88 -281v-545q0 -53 -53 -53t-53 53v101 q-49 -76 -138.5 -115t-214.5 -39h-114q-158 0 -232.5 73.5t-74.5 233.5zM256 307q0 -113 44 -157t157 -44h114q317 0 349 205l4 17v182h-467q-115 0 -158 -44t-43 -159zM352 1133q0 16 10 30l158 199q27 29 62 29h30q37 0 60 -29l157 -199q12 -16 13 -30q0 -20 -15.5 -36 t-36.5 -16q-25 0 -39 21l-147 190h-14l-150 -190q-14 -20 -39 -21q-20 0 -34.5 15.5t-14.5 36.5z" />
<glyph unicode="&#xe3;" horiz-adv-x="1202" d="M150 307q0 160 74.5 234.5t232.5 74.5h467q-4 135 -61.5 189.5t-200.5 54.5h-119q-131 0 -190.5 -27.5t-73.5 -95.5q-8 -27 -20.5 -38t-35.5 -11q-29 0 -42 14.5t-11 40.5q14 117 105.5 170.5t267.5 53.5h119q192 0 280 -88t88 -281v-545q0 -53 -53 -53t-53 53v101 q-49 -76 -138.5 -115t-214.5 -39h-114q-158 0 -232.5 73.5t-74.5 233.5zM256 307q0 -113 44 -157t157 -44h114q317 0 349 205l4 17v182h-467q-115 0 -158 -44t-43 -159zM291 1182q0 6 4 18q29 82 72 119t113 37q55 0 90 -21.5t71 -58.5q27 -27 42.5 -36t37.5 -9 q33 0 53.5 19.5t34.5 64.5q14 41 54 35q20 -2 31.5 -14.5t11.5 -30.5q0 -10 -2 -17q-29 -78 -73 -116.5t-110 -38.5q-51 0 -83.5 20.5t-67.5 54.5q-29 29 -46.5 39t-43.5 10q-35 0 -54.5 -18t-38.5 -68q-12 -41 -53 -34q-20 2 -31.5 14t-11.5 31z" />
<glyph unicode="&#xe4;" horiz-adv-x="1202" d="M150 307q0 160 74.5 234.5t232.5 74.5h467q-4 135 -61.5 189.5t-200.5 54.5h-119q-131 0 -190.5 -27.5t-73.5 -95.5q-8 -27 -20.5 -38t-35.5 -11q-29 0 -42 14.5t-11 40.5q14 117 105.5 170.5t267.5 53.5h119q192 0 280 -88t88 -281v-545q0 -53 -53 -53t-53 53v101 q-49 -76 -138.5 -115t-214.5 -39h-114q-158 0 -232.5 73.5t-74.5 233.5zM256 307q0 -113 44 -157t157 -44h114q317 0 349 205l4 17v182h-467q-115 0 -158 -44t-43 -159zM365 1200v39q0 29 15 44.5t44 15.5h39q57 0 57 -60v-39q0 -59 -57 -59h-39q-29 0 -44 15.5t-15 43.5z M670 1200v39q0 29 15 44.5t44 15.5h39q57 0 57 -60v-39q0 -59 -57 -59h-39q-29 0 -44 15.5t-15 43.5z" />
<glyph unicode="&#xe5;" horiz-adv-x="1202" d="M150 307q0 160 74.5 234.5t232.5 74.5h467q-4 135 -61.5 189.5t-200.5 54.5h-119q-131 0 -190.5 -27.5t-73.5 -95.5q-8 -27 -20.5 -38t-35.5 -11q-29 0 -42 14.5t-11 40.5q14 117 105.5 170.5t267.5 53.5h119q192 0 280 -88t88 -281v-545q0 -53 -53 -53t-53 53v101 q-49 -76 -138.5 -115t-214.5 -39h-114q-158 0 -232.5 73.5t-74.5 233.5zM256 307q0 -113 44 -157t157 -44h114q317 0 349 205l4 17v182h-467q-115 0 -158 -44t-43 -159zM430 1243q0 76 41 117t115 41q76 0 117 -41t41 -117q0 -74 -41 -115t-117 -41q-74 0 -115 41t-41 115z M524 1243q0 -37 13.5 -49t48.5 -12q37 0 50 13t13 48q0 39 -13 51.5t-50 12.5t-49.5 -13.5t-12.5 -50.5z" />
<glyph unicode="&#xe6;" horiz-adv-x="1890" d="M150 299q0 160 74.5 233.5t232.5 73.5h426q-4 135 -61.5 189.5t-200.5 54.5h-78q-152 0 -211.5 -38t-59.5 -134q0 -23 -15 -38t-38 -15t-38 15t-15 38q0 145 91 211.5t286 66.5h78q236 0 315 -161q82 162 307 159h123q186 0 273 -97t87 -304q0 -53 -53 -53h-684v-140 q0 -150 56.5 -208t195.5 -58h125q143 0 198.5 40t55.5 142q0 23 15.5 38.5t37.5 15.5q23 0 38 -15.5t15 -38.5q0 -150 -87 -219t-273 -69h-125q-121 0 -198.5 44t-116.5 136q-111 -176 -396 -176h-73q-158 0 -232.5 73.5t-74.5 233.5zM256 299q0 -113 44 -157t157 -44h73 q178 0 265.5 62.5t87.5 191.5v148h-426q-113 0 -157 -43t-44 -158zM991 606h629q-8 131 -66.5 186.5t-187.5 55.5h-123q-137 2 -192.5 -52.5t-59.5 -189.5z" />
<glyph unicode="&#xe7;" d="M164 369v231q0 193 89 281t279 86h168q152 0 231 -51.5t93 -159.5q4 -25 -10.5 -40.5t-40.5 -15.5q-45 0 -55 50q-12 61 -61.5 85.5t-156.5 24.5h-168q-147 2 -204.5 -55t-57.5 -205v-231q0 -147 58.5 -205t203.5 -58h168q106 0 155.5 25t62.5 86q10 49 55 49 q26 0 40.5 -15t10.5 -40q-14 -104 -88 -155.5t-213 -55.5q8 -20 49 -47q43 -29 69.5 -61.5t26.5 -90.5q0 -113 -53 -165t-166 -52q-176 0 -176 176q0 49 49 50q51 0 51 -50q0 -47 15.5 -62t60.5 -15q70 0 94.5 24.5t24.5 93.5q0 20 -9 32.5t-42 35.5q-37 27 -62.5 54.5 t-33.5 76.5h-89q-190 0 -279 89t-89 280z" />
<glyph unicode="&#xe8;" horiz-adv-x="1232" d="M164 367v231q0 193 89 282t279 87h168q190 0 279.5 -89.5t89.5 -279.5v-102q0 -53 -53 -54h-746v-75q0 -145 58.5 -203t203.5 -58h168q131 0 189.5 34t68.5 116q10 51 56 51q29 0 42 -14t9 -41q-14 -129 -103.5 -190.5t-261.5 -61.5h-168q-190 0 -279 88t-89 279z M270 549h693v49q0 147 -57.5 204.5t-205.5 57.5h-168q-147 2 -204.5 -55t-57.5 -207v-49zM434 1335q0 18 21 37q14 14 32 14q20 0 39 -20l176 -209q12 -18 13 -35q0 -18 -21 -37q-15 -14 -33 -14q-20 0 -39 21l-176 208q-12 18 -12 35z" />
<glyph unicode="&#xe9;" horiz-adv-x="1232" d="M164 367v231q0 193 89 282t279 87h168q190 0 279.5 -89.5t89.5 -279.5v-102q0 -53 -53 -54h-746v-75q0 -145 58.5 -203t203.5 -58h168q131 0 189.5 34t68.5 116q10 51 56 51q29 0 42 -14t9 -41q-14 -129 -103.5 -190.5t-261.5 -61.5h-168q-190 0 -279 88t-89 279z M270 549h693v49q0 147 -57.5 204.5t-205.5 57.5h-168q-147 2 -204.5 -55t-57.5 -207v-49zM555 1130q0 16 12 35l176 209q18 20 39 21q18 0 33 -15q20 -18 21 -37q0 -16 -13 -34l-176 -209q-18 -20 -39 -21q-18 0 -32 15q-21 18 -21 36z" />
<glyph unicode="&#xea;" horiz-adv-x="1232" d="M164 367v231q0 193 89 282t279 87h168q190 0 279.5 -89.5t89.5 -279.5v-102q0 -53 -53 -54h-746v-75q0 -145 58.5 -203t203.5 -58h168q131 0 189.5 34t68.5 116q10 51 56 51q29 0 42 -14t9 -41q-14 -129 -103.5 -190.5t-261.5 -61.5h-168q-190 0 -279 88t-89 279z M270 549h693v49q0 147 -57.5 204.5t-205.5 57.5h-168q-147 2 -204.5 -55t-57.5 -207v-49zM387 1133q0 16 10 30l158 199q27 29 62 29h30q37 0 60 -29l157 -199q12 -16 13 -30q0 -20 -15.5 -36t-36.5 -16q-25 0 -39 21l-147 190h-14l-150 -190q-14 -20 -39 -21 q-20 0 -34.5 15.5t-14.5 36.5z" />
<glyph unicode="&#xeb;" horiz-adv-x="1232" d="M164 367v231q0 193 89 282t279 87h168q190 0 279.5 -89.5t89.5 -279.5v-102q0 -53 -53 -54h-746v-75q0 -145 58.5 -203t203.5 -58h168q131 0 189.5 34t68.5 116q10 51 56 51q29 0 42 -14t9 -41q-14 -129 -103.5 -190.5t-261.5 -61.5h-168q-190 0 -279 88t-89 279z M270 549h693v49q0 147 -57.5 204.5t-205.5 57.5h-168q-147 2 -204.5 -55t-57.5 -207v-49zM400 1200v39q0 29 15 44.5t44 15.5h39q57 0 57 -60v-39q0 -59 -57 -59h-39q-29 0 -44 15.5t-15 43.5zM705 1200v39q0 29 15 44.5t44 15.5h39q57 0 57 -60v-39q0 -59 -57 -59h-39 q-29 0 -44 15.5t-15 43.5z" />
<glyph unicode="&#xec;" horiz-adv-x="487" d="M49 1335q0 18 21 37q14 14 32 14q20 0 39 -20l176 -209q12 -18 13 -35q0 -18 -21 -37q-15 -14 -33 -14q-20 0 -39 21l-176 208q-12 18 -12 35zM190 53v860q0 27 14.5 40.5t39.5 13.5q53 0 53 -54v-860q0 -53 -53 -53q-25 0 -39.5 13.5t-14.5 39.5z" />
<glyph unicode="&#xed;" horiz-adv-x="487" d="M170 1130q0 16 12 35l176 209q18 20 39 21q18 0 33 -15q20 -18 21 -37q0 -16 -13 -34l-176 -209q-18 -20 -39 -21q-18 0 -32 15q-21 18 -21 36zM190 53v860q0 27 14.5 40.5t39.5 13.5q53 0 53 -54v-860q0 -53 -53 -53q-25 0 -39.5 13.5t-14.5 39.5z" />
<glyph unicode="&#xee;" horiz-adv-x="487" d="M2 1133q0 16 10 30l158 199q27 29 62 29h30q37 0 60 -29l157 -199q12 -16 13 -30q0 -20 -15.5 -36t-36.5 -16q-25 0 -39 21l-147 190h-14l-150 -190q-14 -20 -39 -21q-20 0 -34.5 15.5t-14.5 36.5zM190 53v860q0 27 14.5 40.5t39.5 13.5q53 0 53 -54v-860q0 -53 -53 -53 q-25 0 -39.5 13.5t-14.5 39.5z" />
<glyph unicode="&#xef;" horiz-adv-x="487" d="M15 1200v39q0 29 15 44.5t44 15.5h39q57 0 57 -60v-39q0 -59 -57 -59h-39q-29 0 -44 15.5t-15 43.5zM190 53v860q0 27 14.5 40.5t39.5 13.5q53 0 53 -54v-860q0 -53 -53 -53q-25 0 -39.5 13.5t-14.5 39.5zM320 1200v39q0 29 15 44.5t44 15.5h39q57 0 57 -60v-39 q0 -59 -57 -59h-39q-29 0 -44 15.5t-15 43.5z" />
<glyph unicode="&#xf0;" horiz-adv-x="1232" d="M164 369v231q0 193 88 281t280 88h168q164 0 250 -99q-14 180 -57 267.5t-121 107.5l-180 45l-141 -131q-16 -16 -35 -16q-18 0 -37 18q-14 14 -14 35q0 20 16 37l92 86l-176 45q-41 12 -41 49q0 10 2 17q10 43 45 43q4 0 21 -5l243 -61l125 117q20 16 35 16q18 0 37 -18 q16 -20 16 -35q0 -18 -18 -37l-78 -74l113 -28q141 -33 204.5 -197t67.5 -500v-280q0 -193 -88 -281t-281 -88h-168q-193 0 -280.5 88t-87.5 279zM270 369q0 -145 58.5 -202.5t203.5 -57.5h168q145 0 204 57t59 205v262q0 125 -64.5 177t-198.5 52h-168q-145 0 -203.5 -57 t-58.5 -205v-231z" />
<glyph unicode="&#xf1;" horiz-adv-x="1247" d="M190 53v860q0 53 54 54q53 0 53 -54v-98q98 152 352 152h58q192 0 280 -89.5t88 -279.5v-545q0 -53 -53 -53t-53 53v545q0 147 -57.5 204.5t-204.5 57.5h-58q-162 0 -252 -51t-98 -152q0 -10 -2 -14v-590q0 -53 -53 -53t-54 53zM373 1182q0 6 4 18q29 82 72 119t113 37 q55 0 90 -21.5t71 -58.5q27 -27 42.5 -36t37.5 -9q33 0 53.5 19.5t34.5 64.5q14 41 54 35q20 -2 31.5 -14.5t11.5 -30.5q0 -10 -2 -17q-29 -78 -73 -116.5t-110 -38.5q-51 0 -83.5 20.5t-67.5 54.5q-29 29 -46.5 39t-43.5 10q-35 0 -54.5 -18t-38.5 -68q-12 -41 -53 -34 q-20 2 -31.5 14t-11.5 31z" />
<glyph unicode="&#xf2;" horiz-adv-x="1232" d="M164 367v231q0 195 88 283t280 86h168q193 0 281 -88t88 -281v-229q0 -193 -88 -281t-281 -88h-168q-192 0 -280 88t-88 279zM270 367q0 -145 58.5 -203t203.5 -58h168q145 0 204 58.5t59 204.5v229q0 145 -58.5 203.5t-204.5 58.5h-168q-145 2 -203.5 -56.5 t-58.5 -205.5v-231zM422 1335q0 18 21 37q14 14 32 14q20 0 39 -20l176 -209q12 -18 13 -35q0 -18 -21 -37q-15 -14 -33 -14q-20 0 -39 21l-176 208q-12 18 -12 35z" />
<glyph unicode="&#xf3;" horiz-adv-x="1232" d="M164 367v231q0 195 88 283t280 86h168q193 0 281 -88t88 -281v-229q0 -193 -88 -281t-281 -88h-168q-192 0 -280 88t-88 279zM270 367q0 -145 58.5 -203t203.5 -58h168q145 0 204 58.5t59 204.5v229q0 145 -58.5 203.5t-204.5 58.5h-168q-145 2 -203.5 -56.5 t-58.5 -205.5v-231zM543 1130q0 16 12 35l176 209q18 20 39 21q18 0 33 -15q20 -18 21 -37q0 -16 -13 -34l-176 -209q-18 -20 -39 -21q-18 0 -32 15q-21 18 -21 36z" />
<glyph unicode="&#xf4;" horiz-adv-x="1232" d="M164 367v231q0 195 88 283t280 86h168q193 0 281 -88t88 -281v-229q0 -193 -88 -281t-281 -88h-168q-192 0 -280 88t-88 279zM270 367q0 -145 58.5 -203t203.5 -58h168q145 0 204 58.5t59 204.5v229q0 145 -58.5 203.5t-204.5 58.5h-168q-145 2 -203.5 -56.5 t-58.5 -205.5v-231zM375 1133q0 16 10 30l158 199q27 29 62 29h30q37 0 60 -29l157 -199q12 -16 13 -30q0 -20 -15.5 -36t-36.5 -16q-25 0 -39 21l-147 190h-14l-150 -190q-14 -20 -39 -21q-20 0 -34.5 15.5t-14.5 36.5z" />
<glyph unicode="&#xf5;" horiz-adv-x="1232" d="M164 367v231q0 195 88 283t280 86h168q193 0 281 -88t88 -281v-229q0 -193 -88 -281t-281 -88h-168q-192 0 -280 88t-88 279zM270 367q0 -145 58.5 -203t203.5 -58h168q145 0 204 58.5t59 204.5v229q0 145 -58.5 203.5t-204.5 58.5h-168q-145 2 -203.5 -56.5 t-58.5 -205.5v-231zM313 1182q0 6 4 18q29 82 72 119t113 37q55 0 90 -21.5t71 -58.5q27 -27 42.5 -36t37.5 -9q33 0 53.5 19.5t34.5 64.5q14 41 54 35q20 -2 31.5 -14.5t11.5 -30.5q0 -10 -2 -17q-29 -78 -73 -116.5t-110 -38.5q-51 0 -83.5 20.5t-67.5 54.5 q-29 29 -46.5 39t-43.5 10q-35 0 -54.5 -18t-38.5 -68q-12 -41 -53 -34q-20 2 -31.5 14t-11.5 31z" />
<glyph unicode="&#xf6;" horiz-adv-x="1232" d="M164 367v231q0 195 88 283t280 86h168q193 0 281 -88t88 -281v-229q0 -193 -88 -281t-281 -88h-168q-192 0 -280 88t-88 279zM270 367q0 -145 58.5 -203t203.5 -58h168q145 0 204 58.5t59 204.5v229q0 145 -58.5 203.5t-204.5 58.5h-168q-145 2 -203.5 -56.5 t-58.5 -205.5v-231zM388 1200v39q0 29 15 44.5t44 15.5h39q57 0 57 -60v-39q0 -59 -57 -59h-39q-29 0 -44 15.5t-15 43.5zM693 1200v39q0 29 15 44.5t44 15.5h39q57 0 57 -60v-39q0 -59 -57 -59h-39q-29 0 -44 15.5t-15 43.5z" />
<glyph unicode="&#xf7;" d="M150 745q0 49 51 49h747q49 0 49 -49t-49 -49h-747q-51 0 -51 49zM494 393v39q0 29 15 44.5t44 15.5h39q57 0 57 -60v-39q0 -59 -57 -59h-39q-29 0 -44 15.5t-15 43.5zM494 1069v39q0 29 15 44.5t44 15.5h39q57 0 57 -60v-39q0 -59 -57 -59h-39q-29 0 -44 15.5t-15 43.5z " />
<glyph unicode="&#xf8;" horiz-adv-x="1232" d="M164 367v231q0 195 88 283t280 86h168q88 0 144 -17l59 99q16 25 39 24q10 0 23 -6q35 -12 34 -41q0 -16 -10 -33l-51 -82q68 -43 99.5 -119.5t31.5 -193.5v-229q0 -193 -88 -281t-281 -88h-168q-78 0 -147 16l-76 -127q-14 -25 -39 -24q-12 0 -24 6q-33 12 -33 41 q0 16 10 33l70 110q-129 84 -129 312zM270 367q0 -86 19.5 -139.5t62.5 -82.5l434 709q-37 6 -86 6h-168q-145 2 -203.5 -56.5t-58.5 -205.5v-231zM444 113q41 -6 88 -7h168q145 0 204 58.5t59 204.5v229q0 88 -19.5 141.5t-62.5 81.5z" />
<glyph unicode="&#xf9;" horiz-adv-x="1247" d="M172 369v544q0 53 53 54q53 0 54 -54v-544q0 -147 57 -205t205 -58h57q162 0 252 51.5t98 151.5q0 10 2 15v589q0 53 54 54q53 -1 53 -54v-860q0 -53 -53 -53t-54 53v99q-98 -152 -352 -152h-57q-193 0 -281 89t-88 280zM412 1335q0 18 21 37q14 14 32 14q20 0 39 -20 l176 -209q12 -18 13 -35q0 -18 -21 -37q-15 -14 -33 -14q-20 0 -39 21l-176 208q-12 18 -12 35z" />
<glyph unicode="&#xfa;" horiz-adv-x="1247" d="M172 369v544q0 53 53 54q53 0 54 -54v-544q0 -147 57 -205t205 -58h57q162 0 252 51.5t98 151.5q0 10 2 15v589q0 53 54 54q53 -1 53 -54v-860q0 -53 -53 -53t-54 53v99q-98 -152 -352 -152h-57q-193 0 -281 89t-88 280zM532 1130q0 16 12 35l176 209q18 20 39 21 q18 0 33 -15q20 -18 21 -37q0 -16 -13 -34l-176 -209q-18 -20 -39 -21q-18 0 -32 15q-21 18 -21 36z" />
<glyph unicode="&#xfb;" horiz-adv-x="1247" d="M172 369v544q0 53 53 54q53 0 54 -54v-544q0 -147 57 -205t205 -58h57q162 0 252 51.5t98 151.5q0 10 2 15v589q0 53 54 54q53 -1 53 -54v-860q0 -53 -53 -53t-54 53v99q-98 -152 -352 -152h-57q-193 0 -281 89t-88 280zM364 1133q0 16 10 30l158 199q27 29 62 29h30 q37 0 60 -29l157 -199q12 -16 13 -30q0 -20 -15.5 -36t-36.5 -16q-25 0 -39 21l-147 190h-14l-150 -190q-14 -20 -39 -21q-20 0 -34.5 15.5t-14.5 36.5z" />
<glyph unicode="&#xfc;" horiz-adv-x="1247" d="M172 369v544q0 53 53 54q53 0 54 -54v-544q0 -147 57 -205t205 -58h57q162 0 252 51.5t98 151.5q0 10 2 15v589q0 53 54 54q53 -1 53 -54v-860q0 -53 -53 -53t-54 53v99q-98 -152 -352 -152h-57q-193 0 -281 89t-88 280zM377 1200v39q0 29 15 44.5t44 15.5h39 q57 0 57 -60v-39q0 -59 -57 -59h-39q-29 0 -44 15.5t-15 43.5zM682 1200v39q0 29 15 44.5t44 15.5h39q57 0 57 -60v-39q0 -59 -57 -59h-39q-29 0 -44 15.5t-15 43.5z" />
<glyph unicode="&#xfd;" horiz-adv-x="1241" d="M172 -145q0 53 53 53t54 -53q0 -92 32.5 -125t122.5 -33h354q90 0 123 32.5t33 125.5v282q-57 -74 -144 -106.5t-208 -32.5h-57q-188 0 -275.5 86t-87.5 274v557q0 53 53 54q53 0 54 -54v-557q0 -143 56 -198.5t200 -55.5h57q178 0 265 63.5t87 190.5v557q0 53 53 54 q53 0 54 -54v-1060q0 -137 -63.5 -201t-199.5 -64h-354q-135 0 -198.5 63.5t-63.5 201.5zM537 1130q0 16 12 35l176 209q18 20 39 21q18 0 33 -15q20 -18 21 -37q0 -16 -13 -34l-176 -209q-18 -20 -39 -21q-18 0 -32 15q-21 18 -21 36z" />
<glyph unicode="&#xfe;" horiz-adv-x="1259" d="M190 -356v1642q0 53 54 53q53 0 53 -53v-471q117 152 352 152h78q193 0 281 -88t88 -281v-227q0 -193 -88 -281t-281 -88h-430v-358q0 -53 -53 -54q-54 1 -54 54zM297 109h430q147 0 204.5 58t57.5 204v227q0 145 -57.5 203.5t-204.5 58.5h-78q-178 0 -265 -63.5 t-87 -190.5v-497z" />
<glyph unicode="&#xff;" horiz-adv-x="1241" d="M172 -145q0 53 53 53t54 -53q0 -92 32.5 -125t122.5 -33h354q90 0 123 32.5t33 125.5v282q-57 -74 -144 -106.5t-208 -32.5h-57q-188 0 -275.5 86t-87.5 274v557q0 53 53 54q53 0 54 -54v-557q0 -143 56 -198.5t200 -55.5h57q178 0 265 63.5t87 190.5v557q0 53 53 54 q53 0 54 -54v-1060q0 -137 -63.5 -201t-199.5 -64h-354q-135 0 -198.5 63.5t-63.5 201.5zM381 1200v39q0 29 15 44.5t44 15.5h39q57 0 57 -60v-39q0 -59 -57 -59h-39q-29 0 -44 15.5t-15 43.5zM687 1200v39q0 29 15 44.5t44 15.5h39q57 0 57 -60v-39q0 -59 -57 -59h-39 q-29 0 -44 15.5t-15 43.5z" />
<glyph unicode="&#x131;" horiz-adv-x="487" d="M190 53v860q0 27 14.5 40.5t39.5 13.5q53 0 53 -54v-860q0 -53 -53 -53q-25 0 -39.5 13.5t-14.5 39.5z" />
<glyph unicode="&#x152;" horiz-adv-x="1695" d="M164 426v467q0 223 101.5 324.5t322.5 101.5h973q53 0 53 -53t-53 -54h-592v-491h350q53 0 53 -53t-53 -54h-350v-508h592q53 0 53 -53t-53 -53h-971q-223 0 -324.5 101.5t-101.5 324.5zM270 426q0 -176 72 -248t248 -72h272v1106h-274q-119 0 -187.5 -30.5t-99.5 -99 t-31 -189.5v-467z" />
<glyph unicode="&#x153;" horiz-adv-x="1908" d="M164 358v230q0 195 88 282.5t280 85.5h107q119 0 195.5 -34.5t119.5 -112.5q39 78 115 113.5t193 33.5h122q186 0 273.5 -100t87.5 -319q0 -27 -14.5 -40.5t-38.5 -13.5h-684v-118q0 -150 56 -208.5t196 -58.5h124q143 0 198.5 40t55.5 143q0 23 15.5 38t38.5 15 t38 -15.5t15 -37.5q0 -150 -87 -219.5t-274 -69.5h-124q-115 0 -190 35.5t-116 113.5q-43 -78 -119.5 -113.5t-195.5 -35.5h-107q-192 0 -280 88t-88 278zM270 358q0 -145 58.5 -202.5t203.5 -57.5h107q145 0 203.5 58.5t58.5 203.5v228q0 145 -58.5 203.5t-203.5 58.5h-107 q-145 2 -203.5 -56.5t-58.5 -205.5v-230zM1008 590h630q-8 143 -66.5 201.5t-187.5 58.5h-122q-143 2 -197.5 -56.5t-56.5 -203.5z" />
<glyph unicode="&#x178;" horiz-adv-x="1103" d="M27 1266q0 25 28 43q16 10 31 10q25 0 43 -29l420 -665l426 667q16 25 41 25q16 0 33 -10q26 -14 26 -39q0 -16 -10 -33l-463 -725v-457q0 -53 -53 -53t-53 53v457l-459 725q-10 16 -10 31zM324 1552v39q0 29 15 44.5t44 15.5h39q57 0 57 -60v-39q0 -59 -57 -59h-39 q-29 0 -44 15.5t-15 43.5zM629 1552v39q0 29 15 44.5t44 15.5h39q57 0 57 -60v-39q0 -59 -57 -59h-39q-29 0 -44 15.5t-15 43.5z" />
<glyph unicode="&#x192;" horiz-adv-x="741" d="M61 53q0 25 11.5 37t38.5 21q37 8 55 30.5t29 65.5l116 653h-104q-53 0 -53 53t53 54h123l18 102q31 172 116 255t243 95q26 2 40.5 -11t14.5 -40q0 -49 -51 -55q-117 -8 -176.5 -68.5t-81.5 -193.5l-15 -84h209q53 0 53 -54q0 -53 -53 -53h-229l-121 -672 q-27 -162 -180 -186q-25 -4 -40.5 10.5t-15.5 40.5z" />
<glyph unicode="&#x2c6;" horiz-adv-x="694" d="M102 1118q0 16 11 31l157 199q27 29 62 28h30q37 0 60 -28l158 -199q12 -16 12 -31q0 -20 -14.5 -35.5t-36.5 -15.5q-25 0 -39 20l-148 191h-14l-150 -191q-14 -20 -38 -20q-21 0 -35.5 15.5t-14.5 35.5z" />
<glyph unicode="&#x2c7;" horiz-adv-x="694" d="M102 1319q0 20 14.5 35.5t35.5 15.5q24 0 38 -20l150 -191h14l148 191q14 20 39 20q23 0 37 -14.5t14 -36.5q0 -14 -12 -31l-158 -198q-23 -29 -60 -29h-30q-35 0 -62 29l-157 198q-10 14 -11 31z" />
<glyph unicode="&#x2d8;" horiz-adv-x="718" d="M102 1294v15q0 51 52 51q49 0 49 -51v-15q0 -72 36.5 -104.5t120.5 -32.5t120 32t36 105v21q0 45 51 45q49 0 49 -51v-15q0 -117 -65.5 -176t-190.5 -59q-127 0 -192.5 60.5t-65.5 174.5z" />
<glyph unicode="&#x2d9;" horiz-adv-x="389" d="M133 1237v45q0 35 18.5 53.5t53.5 18.5h47q68 0 67 -72v-45q0 -72 -67 -72h-47q-35 0 -53.5 18.5t-18.5 53.5z" />
<glyph unicode="&#x2da;" horiz-adv-x="518" d="M102 1223q0 76 41 116.5t115 40.5q76 0 117 -41t41 -116q0 -74 -41 -115t-117 -41q-74 0 -115 41t-41 115zM197 1223q0 -37 13 -49.5t48 -12.5q39 0 51.5 13.5t12.5 48.5q0 39 -13.5 51t-50.5 12t-49 -13t-12 -50z" />
<glyph unicode="&#x2db;" horiz-adv-x="579" d="M103 -268q0 68 47 125l162 217q20 20 41 20q18 0 34.5 -15.5t16.5 -35.5t-10 -33l-162 -215q-29 -35 -29 -63q0 -29 24.5 -48.5t63.5 -19.5q53 0 105 45q12 10 30 10q25 0 38.5 -14t13.5 -37t-19 -35q-37 -33 -81 -51t-87 -18q-80 0 -134 48t-54 120z" />
<glyph unicode="&#x2dc;" horiz-adv-x="819" d="M102 1118q0 6 4 19q29 82 72 118.5t113 36.5q55 0 90 -21.5t72 -58.5q27 -27 42 -36t37 -9q33 0 53.5 19.5t35.5 64.5q14 41 53 35q20 -2 31.5 -14t11.5 -31q0 -10 -2 -16q-29 -78 -73 -117t-110 -39q-51 0 -83.5 20.5t-67.5 55.5q-29 29 -46.5 39t-43.5 10 q-35 0 -54.5 -18.5t-37.5 -67.5q-12 -41 -54 -35q-20 2 -31.5 14.5t-11.5 30.5z" />
<glyph unicode="&#x2dd;" horiz-adv-x="718" d="M102 1108q0 16 13 35l176 209q18 20 39 20q18 0 32 -14q20 -18 21 -37q0 -16 -12 -35l-176 -209q-18 -20 -39 -20q-18 0 -33 14q-21 19 -21 37zM336 1108q0 16 13 35l176 209q18 20 39 20q18 0 32 -14q20 -18 21 -37q0 -16 -12 -35l-176 -209q-18 -20 -39 -20 q-18 0 -33 14q-21 19 -21 37z" />
<glyph unicode="&#x3a9;" horiz-adv-x="1425" d="M164 645v248q0 223 102.5 324.5t323.5 101.5h246q221 0 323.5 -101.5t102.5 -324.5v-248q0 -201 -85 -305t-270 -115v-121h291q53 0 53 -51q0 -53 -53 -53h-334q-53 0 -53 53v221q0 51 49 54q164 0 229.5 73.5t65.5 243.5v248q0 176 -71.5 247.5t-247.5 71.5h-246 q-176 0 -248 -71.5t-72 -247.5v-248q0 -168 64.5 -241.5t230.5 -75.5q49 -2 49 -54v-221q0 -53 -53 -53h-336q-53 0 -53 53q0 51 53 51h293v121q-184 10 -269 114.5t-85 305.5z" />
<glyph unicode="&#x3c0;" horiz-adv-x="1503" d="M68 913q0 54 53 54h1210q53 0 53 -54q0 -53 -53 -53h-244v-500q0 -141 55.5 -197.5t194.5 -56.5q31 0 43.5 -13t12.5 -40q0 -53 -56 -53q-184 0 -270 87t-86 273v500h-512v-807q0 -53 -53 -53t-54 53v807h-241q-53 0 -53 53z" />
<glyph unicode="&#x400;" horiz-adv-x="1224" d="M172 74v1155q0 74 49 74h832q70 0 69 -54q0 -53 -69 -53h-774v-410h530q74 0 74 -53t-74 -53h-530v-574h774q70 0 69 -53q0 -53 -69 -53h-832q-49 0 -49 74zM418 1624q0 18 16.5 35.5t38.5 17.5q23 0 47 -26l144 -142q25 -27 24 -47q0 -20 -14.5 -36.5t-38.5 -16.5 q-25 0 -49 27l-142 139q-27 29 -26 49z" />
<glyph unicode="&#x401;" horiz-adv-x="1224" d="M172 74v1155q0 74 49 74h832q70 0 69 -54q0 -53 -69 -53h-774v-410h530q74 0 74 -53t-74 -53h-530v-574h774q70 0 69 -53q0 -53 -69 -53h-832q-49 0 -49 74zM385 1522q0 32 34 58t70 26q37 0 71 -26t34 -58q0 -33 -34 -58.5t-71 -25.5t-70.5 25.5t-33.5 58.5zM684 1522 q0 32 34 58t70 26q37 0 71 -26t34 -58q0 -33 -34 -58.5t-71 -25.5t-70.5 25.5t-33.5 58.5z" />
<glyph unicode="&#x402;" horiz-adv-x="1439" d="M55 1249q0 53 68 54h731q70 0 70 -54q0 -53 -70 -53h-311v-371q123 129 344 129q154 0 247 -31.5t140 -111.5t47 -221v-746q0 -160 -53.5 -212t-153.5 -52q-88 0 -88 53t72 54q70 0 93 26.5t23 96.5v778q0 111 -30.5 166t-96 74.5t-192.5 19.5q-352 0 -352 -369v-422 q0 -72 -54 -71q-55 0 -55 69v1141h-311q-68 0 -68 53z" />
<glyph unicode="&#x403;" horiz-adv-x="1140" d="M168 55v987q0 145 44 203t161 58h645q72 0 72 -54q0 -53 -72 -53h-631q-66 0 -89.5 -26.5t-23.5 -94.5v-1020q0 -70 -53 -69q-53 0 -53 69zM561 1460q0 23 27 51l141 140q25 27 49 26q23 0 38 -16t15 -37q0 -18 -24 -47l-143 -141q-25 -27 -48 -27t-39 15.5t-16 35.5z " />
<glyph unicode="&#x404;" horiz-adv-x="1208" d="M147 362v578q0 143 48.5 221t146.5 110t262 32h289q170 0 199 -146q6 -33 6 -94t-54 -62q-53 0 -53 70t-23.5 97.5t-88.5 27.5h-275q-143 0 -216 -18.5t-103.5 -72.5t-30.5 -165v-205h530q72 0 72 -53t-72 -53h-530v-264q0 -111 30.5 -165.5t103.5 -74t216 -19.5h275 q63 0 87.5 28t24.5 97q0 70 53 70t54 -59q0 -63 -6.5 -97t-26.5 -71q-39 -74 -166 -74h-6h-289q-164 0 -262 31.5t-146.5 109.5t-48.5 221z" />
<glyph unicode="&#x405;" horiz-adv-x="1226" d="M125 352q0 68 55 68q53 0 53 -68q0 -115 31 -170t102.5 -73.5t215.5 -18.5h209q102 0 152 68.5t50 171.5q0 88 -37.5 151.5t-85.5 75.5l-481 107q-141 31 -202.5 107.5t-61.5 215.5q0 150 89 241t273 91h156q221 0 309 -49q86 -49 117 -121t31 -195q0 -68 -53 -67 q-55 0 -56 67q0 115 -29.5 169.5t-101.5 71.5t-217 17h-201q-102 0 -156.5 -66.5t-54.5 -158.5q0 -82 36 -141.5t87 -69.5l486 -104q260 -57 260 -353q0 -147 -86 -241t-262 -94h-170q-225 0 -310 51q-84 49 -115.5 121.5t-31.5 195.5z" />
<glyph unicode="&#x406;" horiz-adv-x="450" d="M172 51v1198q0 68 53 68t54 -68v-1198q0 -66 -54 -65q-53 0 -53 65z" />
<glyph unicode="&#x407;" horiz-adv-x="450" d="M-27 1522q0 32 34 58t71 26t70.5 -26t33.5 -58q0 -33 -33.5 -58.5t-70.5 -25.5t-71 25.5t-34 58.5zM172 51v1198q0 68 53 68t54 -68v-1198q0 -66 -54 -65q-53 0 -53 65zM272 1522q0 32 34 58t71 26t70.5 -26t33.5 -58q0 -33 -33.5 -58.5t-70.5 -25.5t-71 25.5t-34 58.5z " />
<glyph unicode="&#x408;" horiz-adv-x="1126" d="M66 352q0 68 55 68q53 0 53 -68q0 -114 29.5 -169.5t100.5 -74t210 -18.5t209 19.5t100.5 74t30.5 164.5v903q0 66 53 66t54 -68v-903v-8q0 -205 -102.5 -279.5t-291.5 -74.5q-162 0 -237.5 13t-141.5 52q-123 72 -122 303z" />
<glyph unicode="&#x409;" horiz-adv-x="1808" d="M43 55q0 20 18.5 34.5t51.5 14.5q68 0 92 26t24 93v819q0 98 19.5 153.5t68 81.5t138.5 26h546v-472h291q133 0 233.5 -52t155 -148t54.5 -221q0 -127 -54.5 -222.5t-154 -148.5t-232.5 -53h-344q-55 0 -55 71v1139h-426q-72 0 -102.5 -28.5t-30.5 -92.5v-815 q0 -152 -50 -206t-151 -54q-45 0 -68.5 16.5t-23.5 38.5zM1001 92h293q162 0 248 85t86 231q0 145 -87 231t-249 86h-291v-633z" />
<glyph unicode="&#x40a;" horiz-adv-x="1908" d="M172 55v1190q0 72 53 72t54 -72v-414h727v414q0 72 53 72t53 -72v-414h285q131 0 230 -53t153.5 -148t54.5 -220t-54.5 -221.5t-153.5 -149.5t-230 -53h-338q-53 0 -53 73v666h-727v-668q0 -72 -54 -71q-53 0 -53 69zM1112 92h285q162 0 247 85t85 231q0 147 -85 232 t-247 85h-285v-633z" />
<glyph unicode="&#x40b;" horiz-adv-x="1439" d="M55 1249q0 53 68 54h731q70 0 70 -54q0 -53 -70 -53h-311v-371q123 129 344 129q154 0 247 -31.5t140 -111.5t47 -221v-533q0 -72 -53 -71q-53 0 -54 71v533q0 111 -30.5 165t-96 73.5t-192.5 19.5q-352 0 -352 -369v-422q0 -72 -54 -71q-55 0 -55 69v1141h-311 q-68 0 -68 53z" />
<glyph unicode="&#x40c;" horiz-adv-x="1175" d="M172 51v1116q0 68 53 68t54 -68v-508h190q72 0 190 205l23 41q80 145 158 238.5t180 93.5q74 0 74 -53t-62 -54q-104 0 -215 -208q-127 -242 -221 -318q70 -59 156 -194q104 -174 160.5 -246t115.5 -72q66 0 66 -53t-72 -53q-68 0 -135.5 55t-124.5 145q-70 111 -103 166 q-121 201 -196 201h-184v-504q0 -63 -54 -63q-53 0 -53 65zM477 1260q0 25 19 45l196 235q29 31 49 31t37 -15.5t17 -37.5q0 -23 -19 -45l-196 -236q-27 -31 -48 -31q-20 0 -37.5 15.5t-17.5 38.5z" />
<glyph unicode="&#x40e;" horiz-adv-x="1079" d="M86 1260q0 43 49 43q37 0 58 -46l362 -821l375 824q18 43 47 43q59 0 59 -48q0 -10 -6 -26l-524 -1143q-45 -98 -174 -98q-170 0 -199 147q-6 35 -6 94t53 60q53 0 53 -70t21.5 -97.5t77.5 -27.5q53 0 80 58l75 157l-393 918q-8 16 -8 33zM254 1532v55h106v-88 q0 -59 19.5 -79.5t77.5 -20.5h209q57 0 75.5 19.5t18.5 80.5v88h106v-55q0 -135 -39 -187.5t-147 -52.5h-240q-106 0 -146 53.5t-40 186.5z" />
<glyph unicode="&#x40f;" horiz-adv-x="1282" d="M176 0v1180q0 72 53 71q53 0 54 -71v-1074h716v1074q0 72 54 71q53 0 53 -71v-1180h-410v-117q0 -72 -55 -71q-55 0 -55 71v117h-410z" />
<glyph unicode="&#x410;" horiz-adv-x="1167" d="M49 18q0 14 6 33l465 1252h127l465 -1252q6 -18 6 -33q0 -51 -53 -51q-33 0 -55 47l-146 394h-561l-145 -394q-23 -47 -56 -47q-53 0 -53 51zM344 514h479l-241 633z" />
<glyph unicode="&#x411;" horiz-adv-x="1136" d="M174 57v1246h725q72 0 72 -54q0 -53 -72 -53h-618v-242h313q127 0 229.5 -65.5t158.5 -176t56 -241.5t-57 -242.5t-158.5 -177t-228.5 -65.5h-371q-49 0 -49 71zM281 92h313q104 0 181 51.5t117 138.5t40 189t-40 188t-117 137.5t-181 51.5h-313v-756z" />
<glyph unicode="&#x412;" horiz-adv-x="1239" d="M172 74v1155q0 74 49 74h369q233 0 339.5 -66t106.5 -229q0 -168 -100 -242q186 -70 186 -338v-59q0 -145 -47 -225.5t-145.5 -112t-261.5 -31.5h-447q-49 0 -49 74zM279 106h389q143 0 214.5 19.5t102.5 74t31 165.5v57q0 111 -31 165t-100.5 73.5t-204.5 19.5h-401 v-574zM279 786h311q131 0 203.5 16.5t104.5 59.5t32 127t-32 125t-102.5 56.5t-205.5 15.5h-311v-400z" />
<glyph unicode="&#x413;" horiz-adv-x="1140" d="M168 55v987q0 145 44 203t161 58h645q72 0 72 -54q0 -53 -72 -53h-631q-66 0 -89.5 -26.5t-23.5 -94.5v-1020q0 -70 -53 -69q-53 0 -53 69z" />
<glyph unicode="&#x414;" horiz-adv-x="1171" d="M25 -10q0 117 104 116h21q41 74 89 284t81.5 463t33.5 450h613v-1197h18q104 0 105 -116v-107q0 -72 -54 -71q-53 0 -53 71v117h-852v-117q0 -72 -53 -71q-53 0 -53 71v107zM266 106h594v1090h-397q0 -162 -32 -388t-78 -424t-87 -278z" />
<glyph unicode="&#x415;" horiz-adv-x="1224" d="M172 74v1155q0 74 49 74h832q70 0 69 -54q0 -53 -69 -53h-774v-410h530q74 0 74 -53t-74 -53h-530v-574h774q70 0 69 -53q0 -53 -69 -53h-832q-49 0 -49 74z" />
<glyph unicode="&#x416;" horiz-adv-x="1585" d="M80 39q0 53 55 53q49 0 72.5 38t48.5 122q16 66 47 145q66 178 232 238q-53 55 -125 190q-86 158 -142.5 231.5t-117.5 76.5q-70 2 -70 53t72 51q68 0 135 -56.5t125 -148.5q70 -111 100 -168q113 -205 182 -205h43v508q0 68 56 68q55 0 55 -68v-508h43q74 0 186 205 q127 229 211 305q78 68 148 68t69 -51q0 -51 -67 -56q-63 -4 -123 -78.5t-139 -224.5q-72 -135 -125 -190q100 -35 168.5 -125t91.5 -188q53 -231 125 -232q69 0 69 -53t-82 -53q-78 0 -132 55t-81 145q-14 55 -51 166q-66 201 -266 201h-45v-504q0 -63 -55 -63t-56 63v504 h-45q-96 0 -153.5 -38t-85 -94t-58.5 -157q-33 -109 -54.5 -159t-65.5 -84.5t-121 -34.5q-74 0 -74 53z" />
<glyph unicode="&#x417;" horiz-adv-x="1196" d="M115 264q0 72 53 72t53 -72v-37q0 -68 23.5 -94.5t89.5 -26.5h375q72 0 129 40t88.5 102.5t31.5 126.5q0 61 -31.5 117.5t-87 91t-122.5 34.5h-176q-74 0 -74 54q0 53 74 53h176q104 0 172.5 64.5t68.5 158.5q0 61 -31.5 118.5t-89 93.5t-128.5 36h-375 q-66 0 -89.5 -26.5t-23.5 -94.5v-37q0 -72 -53 -71q-53 0 -53 71q0 147 44 206t160 59h404q152 0 247 -98.5t95 -266.5q0 -172 -154 -268q154 -111 154 -283q0 -115 -44 -202t-122 -136t-176 -49h-404q-117 0 -160.5 58.5t-43.5 205.5z" />
<glyph unicode="&#x418;" horiz-adv-x="1294" d="M172 55v1190q0 72 53 72t54 -74v-1046l733 1081q25 39 61 39q49 0 49 -72v-1190q0 -70 -53 -69q-53 0 -53 67v1059l-752 -1112q-12 -14 -41 -14q-51 -1 -51 69z" />
<glyph unicode="&#x419;" horiz-adv-x="1294" d="M172 55v1190q0 72 53 72t54 -74v-1046l733 1081q25 39 61 39q49 0 49 -72v-1190q0 -70 -53 -69q-53 0 -53 67v1059l-752 -1112q-12 -14 -41 -14q-51 -1 -51 69zM338 1532v55h106v-88q0 -59 19.5 -79.5t77.5 -20.5h209q57 0 75.5 19.5t18.5 80.5v88h106v-55 q0 -135 -39 -187.5t-147 -52.5h-240q-106 0 -146 53.5t-40 186.5z" />
<glyph unicode="&#x41a;" horiz-adv-x="1175" d="M172 51v1116q0 68 53 68t54 -68v-508h190q72 0 190 205l23 41q80 145 158 238.5t180 93.5q74 0 74 -53t-62 -54q-104 0 -215 -208q-127 -242 -221 -318q70 -59 156 -194q104 -174 160.5 -246t115.5 -72q66 0 66 -53t-72 -53q-68 0 -135.5 55t-124.5 145q-70 111 -103 166 q-121 201 -196 201h-184v-504q0 -63 -54 -63q-53 0 -53 65z" />
<glyph unicode="&#x41b;" horiz-adv-x="1175" d="M43 53q0 53 70 53q68 0 92 26t24 93v817q0 98 19.5 153.5t68 81.5t138.5 26h546v-1246q0 -72 -53 -71q-53 0 -53 71v1139h-426q-72 0 -99.5 -26.5t-27.5 -94.5v-815q0 -150 -52 -205t-155 -55q-92 0 -92 53z" />
<glyph unicode="&#x41c;" horiz-adv-x="1337" d="M172 55v1190q0 72 49 72q37 0 62 -39l385 -569l387 569q27 39 59 39q51 0 51 -72v-1190q0 -70 -53 -69q-53 0 -53 71v1059l-354 -528q-12 -16 -35 -17q-25 0 -37 17l-354 528v-1059q0 -72 -54 -71q-53 0 -53 69z" />
<glyph unicode="&#x41d;" horiz-adv-x="1294" d="M172 55v1190q0 72 53 72t54 -72v-489h737v489q0 72 53 72t53 -72v-1190q0 -70 -53 -69q-53 0 -53 69v594h-737v-594q0 -70 -54 -69q-53 0 -53 69z" />
<glyph unicode="&#x41e;" horiz-adv-x="1216" d="M133 467v369q0 150 60.5 259t168 167.5t246.5 58.5t247 -58.5t168 -169t60 -257.5v-369q0 -225 -133 -354q-131 -131 -342 -131q-139 0 -246.5 58t-168 167.5t-60.5 259.5zM240 469q0 -180 96 -280.5t272 -100.5t272.5 100.5t96.5 280.5v365q0 178 -96 280 q-95 100 -273 100q-176 0 -272 -100t-96 -280v-365z" />
<glyph unicode="&#x41f;" horiz-adv-x="1277" d="M174 55v1248h930v-1248q0 -70 -53 -69q-53 0 -54 69v1141h-716v-1141q0 -70 -54 -69q-53 0 -53 69z" />
<glyph unicode="&#x420;" horiz-adv-x="1105" d="M172 51v1178q0 74 49 74h371q227 0 335.5 -70t108.5 -234q0 -330 -354 -329h-403v-619q0 -66 -54 -65q-53 0 -53 65zM279 776h313q131 0 202.5 17.5t103.5 62.5t32 131t-33 131t-103.5 61.5t-201.5 16.5h-313v-420z" />
<glyph unicode="&#x421;" horiz-adv-x="1212" d="M147 369v565q0 145 47.5 225t142.5 112t255 32h301q170 0 199 -146q6 -33 6 -94t-54 -62q-53 0 -53 70t-24.5 97.5t-87.5 27.5h-287q-186 0 -244 -33q-57 -33 -75.5 -84t-18.5 -145v-565q0 -115 30.5 -170.5t103.5 -74t216 -18.5h275q66 0 89 29t23 98q0 68 53 68t54 -59 q0 -63 -6.5 -97t-26.5 -71q-39 -74 -172 -74h-289q-166 0 -264 31.5t-145.5 111.5t-47.5 226z" />
<glyph unicode="&#x422;" horiz-adv-x="985" d="M55 1249q0 53 68 54h739q68 0 68 -54q0 -53 -68 -53h-311v-1145v-4q0 -61 -55 -61q-57 0 -58 65v1145h-315q-68 0 -68 53z" />
<glyph unicode="&#x423;" horiz-adv-x="1079" d="M86 1260q0 43 49 43q37 0 58 -46l362 -821l375 824q18 43 47 43q59 0 59 -48q0 -10 -6 -26l-524 -1143q-45 -98 -174 -98q-170 0 -199 147q-6 35 -6 94t53 60q53 0 53 -70t21.5 -97.5t77.5 -27.5q53 0 80 58l75 157l-393 918q-8 16 -8 33z" />
<glyph unicode="&#x424;" horiz-adv-x="1122" d="M86 639v25q0 211 114.5 338.5t309.5 144.5v102q0 68 55 68t56 -68v-102q188 -18 301.5 -147.5t113.5 -335.5v-25q0 -207 -113.5 -336t-301.5 -147v-105q0 -66 -56 -65q-55 0 -55 65v105q-195 16 -309.5 144t-114.5 339zM193 639q0 -170 82.5 -270.5t234.5 -114.5v795 q-152 -14 -234.5 -116t-82.5 -269v-25zM621 256q147 14 228 115.5t81 267.5v25q0 164 -81 265t-228 118v-791z" />
<glyph unicode="&#x425;" horiz-adv-x="1144" d="M74 37q0 20 16 43l416 569l-416 572q-16 20 -16 45t17.5 38t39.5 13q20 0 47 -37l393 -547l396 547q27 37 49 37q55 0 55 -49v-4q0 -23 -16 -43l-416 -572l416 -569q16 -23 16 -45q0 -23 -16.5 -36t-40.5 -13q-23 0 -47 32l-396 549l-393 -549q-25 -33 -47 -32 q-25 0 -41 14t-16 37z" />
<glyph unicode="&#x426;" horiz-adv-x="1191" d="M176 0v1180q0 72 53 71q53 0 54 -71v-1074h598v1074q0 72 53 71q53 0 53 -71v-1074h14q104 0 105 -116v-107q0 -72 -53 -71q-53 0 -54 71v117h-823z" />
<glyph unicode="&#x427;" horiz-adv-x="1239" d="M117 713v532q0 72 53 72t53 -72v-532q0 -111 31 -165t100.5 -73.5t204.5 -19.5h64q338 0 338 368v422q0 72 53 72t53 -70v-1190q0 -72 -53 -71q-53 0 -53 71v420q-119 -129 -338 -129h-64q-217 0 -299 51q-82 49 -112.5 121t-30.5 193z" />
<glyph unicode="&#x428;" horiz-adv-x="1429" d="M176 0v1180q0 72 53 71q53 0 54 -71v-1074h379v1074q0 72 53 71q53 0 53 -71v-1074h379v1074q0 72 53 71q53 0 53 -71v-1180h-1077z" />
<glyph unicode="&#x429;" horiz-adv-x="1458" d="M176 0v1180q0 72 53 71q53 0 54 -71v-1074h376v1074q0 72 54 71q53 0 53 -71v-1074h381v1074q0 72 53 71q53 0 53 -71v-1074h15q104 0 104 -116v-107q0 -72 -53 -71q-53 0 -53 71v117h-1090z" />
<glyph unicode="&#x42a;" horiz-adv-x="1263" d="M51 1249q0 53 74 54h303v-349h315q127 0 228.5 -65.5t158 -176t56.5 -241.5t-56.5 -242.5t-157 -177t-227.5 -65.5h-372q-51 0 -51 71v1139h-197q-74 0 -74 53zM428 92h317q102 0 178 51.5t116 137.5t40 188t-40 189t-116.5 138.5t-179.5 51.5h-315v-756z" />
<glyph unicode="&#x42b;" horiz-adv-x="1378" d="M172 57v1180q0 66 53 66t54 -64v-285h313q127 0 229.5 -65.5t158.5 -176t56 -241.5t-57 -242.5t-158.5 -177t-228.5 -65.5h-371q-49 0 -49 71zM279 92h313q104 0 181 51.5t117 138.5t40 189t-40 188t-117 137.5t-181 51.5h-313v-756zM1100 51v1198q0 68 53 68t53 -68 v-1198q0 -66 -53 -65q-53 0 -53 65z" />
<glyph unicode="&#x42c;" horiz-adv-x="1114" d="M172 57v1180q0 66 53 66t54 -64v-285h313q127 0 229.5 -65.5t158.5 -176t56 -241.5t-57 -242.5t-158.5 -177t-228.5 -65.5h-371q-49 0 -49 71zM279 92h313q104 0 181 51.5t117 138.5t40 189t-40 188t-117 137.5t-181 51.5h-313v-756z" />
<glyph unicode="&#x42d;" horiz-adv-x="1208" d="M111 242q0 59 53 59t53 -70t24.5 -97.5t88.5 -27.5h274q143 0 216 19.5t103.5 74t30.5 165.5v264h-530q-72 0 -72 53t72 53h530v205q0 111 -30.5 165t-103 72.5t-216.5 18.5h-274q-66 0 -89.5 -27.5t-23.5 -97.5t-53 -70t-53 62q0 61 6 95t26 71q39 74 172 74h289 q164 0 262.5 -32t146.5 -110t48 -221v-578q0 -143 -48 -221t-146.5 -109.5t-262.5 -31.5h-289q-170 0 -198 145q-6 35 -6 97z" />
<glyph unicode="&#x42e;" horiz-adv-x="1474" d="M172 51v1198q0 68 53 68t54 -66v-536h114v121q0 150 60.5 259t168 167.5t246.5 58.5t247 -58.5t167 -169t59 -257.5v-369q0 -147 -59 -258t-166.5 -169t-247.5 -58q-139 0 -246.5 58t-168 167.5t-60.5 259.5v141h-114v-559q0 -63 -54 -63q-53 0 -53 65zM500 469 q0 -180 98 -280.5t272 -100.5t269.5 100.5t95.5 280.5v365q0 178 -96.5 279t-268.5 101q-174 0 -272 -101t-98 -279v-365z" />
<glyph unicode="&#x42f;" horiz-adv-x="1198" d="M14 39q0 53 64 53q57 0 99 42t56 91l64 234q29 115 117 178q-238 72 -238 330q0 356 445 356h356q49 0 49 -74v-1198q0 -66 -53 -65q-53 0 -53 65v561h-277q-193 0 -240 -166l-57 -213q-29 -111 -99.5 -179t-150.5 -68q-82 0 -82 53zM283 956q0 -133 79.5 -190t258.5 -57 h299v497h-299q-178 0 -258 -58t-80 -192z" />
<glyph unicode="&#x430;" horiz-adv-x="1134" d="M123 252q0 137 48 213t147.5 107.5t261.5 31.5h301v117q0 63 -23.5 90t-89.5 27h-289q-250 0 -250 -123q0 -72 -53 -72t-53 72q0 229 342 229h317q117 0 161 -56.5t44 -201.5v-631q0 -70 -53 -69q-53 0 -53 71v72q-117 -129 -349 -129h-190q-98 0 -158.5 68.5 t-60.5 183.5zM229 260q0 -68 34 -111t79 -43h190q348 0 349 361v31h-301q-193 0 -252 -33q-59 -31 -79 -78t-20 -127z" />
<glyph unicode="&#x431;" horiz-adv-x="1243" d="M145 362v570q0 129 48.5 205.5t157 114.5t296.5 46q143 4 289 5q74 0 74 -54q0 -53 -74 -53q-438 0 -504 -25q-63 -23 -95 -41t-56.5 -62t-26.5 -124h420q158 0 253 -31.5t142 -109.5t47 -219v-224q0 -141 -48 -220t-145.5 -109.5t-260.5 -30.5h-62q-164 0 -262 31.5 t-145.5 109.5t-47.5 221zM252 362q0 -113 33.5 -167t105.5 -71.5t209 -17.5h62q193 0 251 33q57 31 77 80t20 143v220q0 111 -31 165t-99.5 72.5t-205.5 18.5h-422v-476z" />
<glyph unicode="&#x432;" horiz-adv-x="1232" d="M154 0v944h624q145 0 235.5 -65.5t90.5 -198.5q0 -141 -121 -195q121 -78 121 -217q0 -135 -90 -201.5t-236 -66.5h-624zM260 106h504q233 0 233 140q0 102 -55 145t-170 43h-512v-328zM260 541h512q125 0 176 30.5t51 110.5q0 156 -235 156h-504v-297z" />
<glyph unicode="&#x433;" horiz-adv-x="980" d="M150 55v631q0 145 44 201.5t160 56.5h520q72 0 72 -53t-72 -53h-505q-66 0 -89.5 -27t-23.5 -94v-662q0 -70 -53 -69q-53 0 -53 69z" />
<glyph unicode="&#x434;" horiz-adv-x="1144" d="M27 -10q0 117 104 116h21q205 342 204 838h543v-838h88q104 0 105 -116v-107q0 -72 -54 -71q-53 0 -53 71v117h-852v-117q0 -72 -53 -71q-53 0 -53 71v107zM270 106h521v732h-326q-4 -403 -195 -732z" />
<glyph unicode="&#x435;" horiz-adv-x="1212" d="M127 360v224q0 141 48 219t146.5 109.5t262.5 31.5h59q164 0 261 -30.5t145.5 -109.5t48.5 -220v-82h-865v-140q0 -113 34 -167t105.5 -71.5t211.5 -17.5h274q66 0 89.5 29t23.5 98q0 68 53 68t53 -59q0 -63 -6 -97t-27 -71q-39 -74 -165 -74h-7h-288q-164 0 -262.5 31.5 t-146.5 109.5t-48 219zM233 608h758q-2 98 -33.5 146.5t-103.5 66t-211 17.5h-59q-139 0 -212 -17.5t-104.5 -65.5t-34.5 -147z" />
<glyph unicode="&#x436;" horiz-adv-x="1470" d="M82 39q0 53 57 53q51 0 75 40t38 116q12 68 63.5 135.5t133.5 101.5q-39 47 -78 144q-49 113 -96.5 169t-116.5 56q-76 0 -76 53t84 54q80 0 145.5 -44.5t100.5 -109.5q33 -63 57 -127q59 -154 117 -154h94v367q0 66 55 65q55 0 56 -65v-367h94q61 0 119 154 q63 160 136.5 220.5t166.5 60.5q82 0 82 -54q0 -53 -76 -53q-70 0 -119 -55.5t-96 -167.5q-43 -102 -78 -144q84 -33 136 -100.5t65 -136.5q29 -158 94 -158q74 0 74 -53t-78 -53q-133 0 -174 155q-14 57 -41 129q-57 156 -305 160v-379q0 -66 -56 -65q-55 0 -55 65v379 q-119 -2 -187.5 -36t-98 -82t-48.5 -117q-4 -14 -21.5 -80t-54.5 -96.5t-94 -30.5l-4 -2q-90 0 -90 53z" />
<glyph unicode="&#x437;" horiz-adv-x="1198" d="M119 264q0 72 53 72t53 -72v-37q0 -68 23.5 -94.5t89.5 -26.5h375q250 0 250 127q0 201 -242 201h-176q-74 0 -74 53t74 54h176q135 0 189.5 36.5t54.5 133.5q0 127 -252 127h-375q-66 0 -89.5 -27t-23.5 -94v-37q0 -72 -53 -72t-53 72q0 147 44 205.5t161 58.5h403 q156 0 249 -64.5t93 -199.5q0 -141 -121 -195q121 -78 121 -219q0 -266 -342 -266h-403q-117 0 -161 58.5t-44 205.5z" />
<glyph unicode="&#x438;" horiz-adv-x="1236" d="M154 0v887q0 72 53 71q53 0 53 -73v-756l715 815h108v-887q0 -72 -53 -71q-53 0 -53 73v748l-709 -807h-114z" />
<glyph unicode="&#x439;" horiz-adv-x="1236" d="M154 0v887q0 72 53 71q53 0 53 -73v-756l715 815h108v-887q0 -72 -53 -71q-53 0 -53 73v748l-709 -807h-114zM324 1257v56h106v-88q0 -59 19.5 -80t76.5 -21h209q57 0 75.5 19.5t18.5 81.5v88h107v-56q0 -135 -39 -187t-147 -52h-240q-106 0 -146 53t-40 186z" />
<glyph unicode="&#x43a;" horiz-adv-x="1150" d="M152 49v844q0 66 53 65q53 0 53 -65v-367h221q63 0 152 154q96 160 183 220.5t179 60.5q82 0 82 -54q0 -53 -76 -53q-70 0 -131 -56.5t-131 -168.5q-70 -111 -108 -144q92 -35 158.5 -102.5t89.5 -134.5q55 -156 127 -156t71 -53q0 -53 -78 -53q-135 0 -206 153 q-20 49 -66 127q-92 154 -352 154h-115v-371q0 -63 -53 -63t-53 63z" />
<glyph unicode="&#x43b;" horiz-adv-x="1165" d="M53 53q0 53 70 53q68 0 92.5 26t24.5 93v461q0 145 45 201.5t166 56.5h561v-885q0 -74 -54 -73q-53 0 -53 71v781h-438q-68 0 -93.5 -27t-25.5 -94v-459q0 -150 -50 -204t-153 -54q-92 0 -92 53z" />
<glyph unicode="&#x43c;" horiz-adv-x="1296" d="M152 55v832q0 72 49 71q37 0 61 -38l385 -570l387 570q27 39 60 38q51 0 51 -71v-832q0 -70 -53 -69q-53 0 -54 71v701l-354 -529q-10 -16 -35 -16t-37 16l-354 529v-701q0 -72 -53 -71q-53 0 -53 69z" />
<glyph unicode="&#x43d;" horiz-adv-x="1234" d="M152 55v832q0 72 53 71q53 0 53 -71v-334h717v334q0 72 53 71q53 0 53 -71v-832q0 -70 -53 -69q-53 0 -53 69v391h-717v-391q0 -70 -53 -69q-53 0 -53 69z" />
<glyph unicode="&#x43e;" horiz-adv-x="1224" d="M127 360v224q0 141 48 219t146.5 109.5t262.5 31.5h59q164 0 261 -30.5t145.5 -109.5t48.5 -220v-224q0 -141 -48.5 -220t-145.5 -109.5t-261 -30.5h-59q-164 0 -262.5 31.5t-146.5 109.5t-48 219zM233 362q0 -113 34 -167t105.5 -71.5t211.5 -17.5h59q193 0 252 33 q57 31 76.5 80t19.5 143v220q0 113 -32.5 167t-100 71.5t-196.5 17.5h-19h-59q-193 0 -252 -33q-59 -31 -79 -80t-20 -143v-220z" />
<glyph unicode="&#x43f;" horiz-adv-x="1236" d="M154 55v889h929v-889q0 -70 -53 -69q-53 0 -53 69v783h-717v-783q0 -70 -53 -69q-53 0 -53 69z" />
<glyph unicode="&#x440;" horiz-adv-x="1251" d="M154 -301v1190q0 70 53 69q53 0 53 -71v-72q121 129 350 129h60q164 0 261 -30.5t145 -109.5t48 -220v-224q0 -141 -47 -220t-144 -109.5t-261 -30.5h-412v-301q0 -72 -53 -72t-53 72zM260 106h412q143 0 213.5 18.5t101.5 73t31 164.5v220q0 113 -34 167t-101.5 71.5 t-194.5 17.5h-18h-60q-350 0 -350 -363v-369z" />
<glyph unicode="&#x441;" horiz-adv-x="1196" d="M127 360v224q0 141 48 219t146.5 109.5t262.5 31.5h288q170 0 199 -147q6 -33 6 -95q0 -59 -53 -59t-53 70t-24.5 97.5t-88.5 27.5h-274q-193 0 -252 -33q-59 -31 -79 -80t-20 -143v-220q0 -113 34 -167t105.5 -71.5t211.5 -17.5h274q66 0 89.5 29t23.5 98q0 68 53 68 t53 -59q0 -63 -6 -97t-27 -71q-39 -74 -172 -74h-288q-164 0 -262.5 31.5t-146.5 109.5t-48 219z" />
<glyph unicode="&#x442;" horiz-adv-x="942" d="M33 891q0 53 67 53h740q68 0 67 -53q0 -53 -67 -53h-312v-789q0 -63 -57 -63q-55 0 -55 59v4v789h-316q-68 0 -67 53z" />
<glyph unicode="&#x443;" horiz-adv-x="1267" d="M143 -178q0 59 54 59q53 0 53 -69q0 -70 24.5 -97.5t87.5 -27.5h551q59 0 77 19.5t18 82.5v340q-119 -129 -351 -129h-59q-164 0 -261 30.5t-145.5 109.5t-48.5 220v529q0 70 54 69q53 0 53 -69v-527q0 -113 33.5 -167t104.5 -71.5t210 -17.5h59q350 0 351 365v418 q0 70 53 69q53 0 53 -69v-1067q0 -135 -40 -188.5t-146 -53.5h-580q-170 0 -198 148q-6 33 -7 94z" />
<glyph unicode="&#x444;" horiz-adv-x="1572" d="M123 401v142q0 401 342 401q90 0 149.5 -28.5t116.5 -98.5v428q0 72 55 72t56 -72v-428q57 70 116.5 98.5t149.5 28.5q342 0 342 -401v-142q0 -401 -342 -401q-90 0 -149.5 28.5t-116.5 98.5v-428q0 -72 -56 -72q-55 0 -55 72v428q-57 -70 -116.5 -98.5t-149.5 -28.5 q-342 0 -342 401zM229 401q0 -219 107 -270q49 -25 139 -25t152 62q102 102 104 305q-4 207 -104 305q-63 59 -152 60q-172 0 -213 -101q-33 -74 -33 -194v-142zM842 473q4 -207 104 -305q61 -61 152 -62q172 0 213 101q33 74 32 194v142q0 217 -106 268q-49 25 -139 25 q-2 0 -2 2q-86 0 -150 -60q-100 -98 -104 -305z" />
<glyph unicode="&#x445;" horiz-adv-x="1048" d="M82 18q0 16 20 56l351 397l-351 399q-20 23 -20 48q0 20 16.5 34.5t36.5 14.5q23 0 49 -25l342 -395l340 395q25 25 47 25q23 0 38.5 -14.5t15.5 -34.5q0 -25 -21 -48l-350 -399l350 -397q20 -29 21 -49q0 -20 -15.5 -34t-38.5 -14t-47 25l-340 395l-342 -395 q-27 -25 -49 -25q-20 0 -36.5 13.5t-16.5 27.5z" />
<glyph unicode="&#x446;" horiz-adv-x="1153" d="M154 0v889q0 70 53 69q53 0 53 -69v-783h598v783q0 70 53 69q53 0 54 -69v-783h14q104 0 104 -116v-107q0 -72 -53 -71q-53 0 -53 71v117h-823z" />
<glyph unicode="&#x447;" horiz-adv-x="1206" d="M102 625v264q0 70 54 69q53 0 53 -69v-262q0 -111 30.5 -165t100.5 -73.5t205 -19.5h63q166 0 252 94t86 272v154q0 70 53 69q53 0 54 -69v-832q0 -72 -54 -71q-53 0 -53 71v334q-119 -129 -338 -129h-63q-158 0 -253 32t-142.5 109.5t-47.5 221.5z" />
<glyph unicode="&#x448;" horiz-adv-x="1302" d="M154 0v889q0 70 53 69q53 0 53 -69v-783h338v783q0 70 53 69q53 0 54 -69v-783h337v783q0 70 54 69q53 0 53 -69v-889h-995z" />
<glyph unicode="&#x449;" horiz-adv-x="1337" d="M154 0v889q0 70 53 69q53 0 53 -69v-783h336v783q0 70 53 69q53 0 53 -69v-783h340v783q0 70 54 69q53 0 53 -69v-783h14q104 0 105 -116v-107q0 -72 -54 -71q-53 0 -53 71v117h-1007z" />
<glyph unicode="&#x44a;" horiz-adv-x="1206" d="M55 891q0 53 74 53h303v-403h356q150 0 248.5 -66.5t98.5 -204.5q0 -270 -342 -270h-467v838h-197q-74 0 -74 53zM432 106h346q250 0 250 164q0 104 -67.5 134t-182.5 30h-346v-328z" />
<glyph unicode="&#x44b;" horiz-adv-x="1366" d="M154 0v887q0 72 53 71q53 0 53 -71v-346h440q145 0 235.5 -65.5t90.5 -205.5q0 -139 -90 -204.5t-236 -65.5h-546zM260 106h426q119 0 176.5 46.5t57.5 113.5q0 51 -30 94t-75 58q-53 16 -129 16h-426v-328zM1108 41v860q0 68 53 68t53 -68v-860q0 -66 -53 -66t-53 66z " />
<glyph unicode="&#x44c;" horiz-adv-x="1097" d="M154 0v887q0 72 53 71q53 0 53 -71v-346h440q145 0 235.5 -65.5t90.5 -205.5q0 -139 -90 -204.5t-236 -65.5h-546zM260 106h426q119 0 176.5 46.5t57.5 113.5q0 51 -30 94t-75 58q-53 16 -129 16h-426v-328z" />
<glyph unicode="&#x44d;" horiz-adv-x="1193" d="M117 242q0 59 53 59t53 -70t24.5 -97.5t88.5 -27.5h274q160 0 234 27t94 78t23 149v74h-418q-74 0 -74 53t74 54h418v43q0 131 -37 174q-35 41 -84 57q-78 23 -230 23h-274q-66 0 -89.5 -28t-23.5 -97q0 -70 -53 -70t-53 62q0 63 6 96t24 67q39 72 175 76h288 q164 0 262.5 -31.5t146.5 -109.5t48 -219v-224q0 -141 -48 -219t-146.5 -109.5t-262.5 -31.5h-288q-170 0 -199 147q-6 35 -6 95z" />
<glyph unicode="&#x44e;" horiz-adv-x="1409" d="M152 49v844q0 66 53 65q53 0 53 -65v-352h135v43q0 141 48 219t144.5 109.5t256.5 31.5q158 0 253 -31.5t141 -109.5t46 -219v-224q0 -141 -46 -219t-141.5 -109.5t-252.5 -31.5q-160 0 -256.5 31.5t-144.5 109.5t-48 219v74h-135v-385q0 -63 -53 -63t-53 63zM500 362 q0 -111 31.5 -165t101 -72.5t207.5 -18.5q137 0 205.5 18.5t99.5 73t31 164.5v220q0 111 -31 165t-99.5 72.5t-205.5 18.5t-207 -18.5t-101.5 -73t-31.5 -164.5v-220z" />
<glyph unicode="&#x44f;" horiz-adv-x="1130" d="M47 37q0 53 64 53q119 0 168 178q20 84 94 152q-109 20 -157 75.5t-48 153.5q0 160 78 230q33 29 98 43q72 18 268 22h316q49 0 49 -72v-823q0 -63 -53 -63t-54 63v357h-247q-111 0 -164 -40t-82 -143q-29 -102 -98.5 -170.5t-149.5 -68.5q-82 0 -82 53zM274 678 q0 -78 24 -113t78 -45t171 -10h323v338h-323q-164 0 -217 -27q-56 -26 -56 -143z" />
<glyph unicode="&#x450;" horiz-adv-x="1212" d="M127 360v224q0 141 48 219t146.5 109.5t262.5 31.5h59q164 0 261 -30.5t145.5 -109.5t48.5 -220v-82h-865v-140q0 -113 34 -167t105.5 -71.5t211.5 -17.5h274q66 0 89.5 29t23.5 98q0 68 53 68t53 -59q0 -63 -6 -97t-27 -71q-39 -74 -165 -74h-7h-288q-164 0 -262.5 31.5 t-146.5 109.5t-48 219zM233 608h758q-2 98 -33.5 146.5t-103.5 66t-211 17.5h-59q-139 0 -212 -17.5t-104.5 -65.5t-34.5 -147zM391 1346q0 22 16.5 37.5t38.5 15.5q20 0 48 -31l196 -235q18 -20 19 -46q0 -23 -16.5 -38t-37.5 -15q-20 0 -49 31l-196 235q-18 23 -19 46z " />
<glyph unicode="&#x451;" horiz-adv-x="1212" d="M127 360v224q0 141 48 219t146.5 109.5t262.5 31.5h59q164 0 261 -30.5t145.5 -109.5t48.5 -220v-82h-865v-140q0 -113 34 -167t105.5 -71.5t211.5 -17.5h274q66 0 89.5 29t23.5 98q0 68 53 68t53 -59q0 -63 -6 -97t-27 -71q-39 -74 -165 -74h-7h-288q-164 0 -262.5 31.5 t-146.5 109.5t-48 219zM233 608h758q-2 98 -33.5 146.5t-103.5 66t-211 17.5h-59q-139 0 -212 -17.5t-104.5 -65.5t-34.5 -147zM360 1143q0 33 34 58.5t71 25.5t70.5 -25.5t33.5 -58.5t-33.5 -58.5t-70.5 -25.5t-71 25.5t-34 58.5zM659 1143q0 33 34 58.5t71 25.5 t70.5 -25.5t33.5 -58.5t-33.5 -58.5t-70.5 -25.5t-71 25.5t-34 58.5z" />
<glyph unicode="&#x452;" horiz-adv-x="1269" d="M76 1079q0 53 78 54v110q0 74 53 74t53 -74v-110h430q78 0 78 -54q0 -55 -78 -55h-430v-209q121 129 350 129h60q164 0 262 -31.5t145 -109.5t47 -221v-738q0 -111 -26.5 -168t-70.5 -76.5t-112 -19.5q-88 0 -88 53t72 54q70 0 94.5 26.5t24.5 96.5v772q0 111 -31 165 t-102.5 72.5t-214.5 18.5h-60q-350 0 -350 -365v-418q0 -70 -53 -69q-53 0 -53 69v969q-78 0 -78 55z" />
<glyph unicode="&#x453;" horiz-adv-x="980" d="M150 55v631q0 145 44 201.5t160 56.5h520q72 0 72 -53t-72 -53h-505q-66 0 -89.5 -27t-23.5 -94v-662q0 -70 -53 -69q-53 0 -53 69zM483 1087q0 25 19 46l196 235q29 31 50 31q20 0 36.5 -15.5t16.5 -37.5q0 -23 -19 -46l-196 -235q-27 -31 -47 -31t-38 15.5t-18 37.5z " />
<glyph unicode="&#x454;" horiz-adv-x="1193" d="M127 360v224q0 141 48 219t146.5 109.5t262.5 31.5h288q170 0 199 -145q6 -33 6 -94t-53 -62q-53 0 -53 70t-23.5 97.5t-89.5 27.5h-274h-15q-152 0 -223.5 -27t-92 -78t-20.5 -149v-43h418q74 0 74 -54q0 -53 -74 -53h-418v-74q0 -131 37 -174q35 -41 84 -57 q78 -23 230 -23h274q63 0 88 28t25 97q0 70 53 70t53 -59q0 -61 -6 -95t-27 -71q-39 -76 -172 -76h-288q-164 0 -262.5 31.5t-146.5 109.5t-48 219z" />
<glyph unicode="&#x455;" horiz-adv-x="1200" d="M123 242q0 59 53 59t53 -68q0 -70 23.5 -98.5t89.5 -28.5h508q121 0 121 152q0 76 -34 124t-87 48h-463q-264 0 -264 266q0 127 65.5 187.5t219.5 60.5h460q172 0 199 -147q6 -33 6 -95q0 -59 -53 -59t-53 70t-24.5 97.5t-88.5 27.5h-504q-121 0 -121 -142 q0 -76 33 -117.5t88 -41.5h465q262 0 262 -279q0 -131 -66.5 -194.5t-215.5 -63.5h-467q-170 0 -199 145q-6 35 -6 97z" />
<glyph unicode="&#x456;" horiz-adv-x="409" d="M100 1231q0 33 34 58.5t71 25.5t70.5 -25.5t33.5 -58.5t-33.5 -58.5t-70.5 -25.5t-71 25.5t-34 58.5zM152 41v860q0 68 53 68t53 -68v-860q0 -66 -53 -66t-53 66z" />
<glyph unicode="&#x457;" horiz-adv-x="409" d="M-49 1157q0 33 33.5 58.5t70.5 25.5t71 -25.5t34 -58.5t-34 -58.5t-71 -25.5t-70.5 25.5t-33.5 58.5zM152 41v860q0 68 53 68t53 -68v-860q0 -66 -53 -66t-53 66zM250 1157q0 33 33.5 58.5t70.5 25.5t71 -25.5t34 -58.5t-34 -58.5t-71 -25.5t-70.5 25.5t-33.5 58.5z" />
<glyph unicode="&#x458;" horiz-adv-x="413" d="M-250 -305q0 53 74 53q133 0 201.5 18.5t98.5 71.5t30 162v885q0 74 53 73q53 0 53 -73v-885v-8q0 -141 -49 -218t-142.5 -104.5t-244.5 -27.5q-74 0 -74 53zM98 1231q0 33 34 58.5t71 25.5t70.5 -25.5t33.5 -58.5t-33.5 -58.5t-70.5 -25.5t-71 25.5t-34 58.5z" />
<glyph unicode="&#x459;" horiz-adv-x="1544" d="M61 53q0 53 70 53q68 0 92.5 26t24.5 93v461q0 98 19.5 153.5t67.5 80t138 24.5h459v-403h211q147 0 237 -65.5t90 -205.5q0 -270 -342 -270h-303v838h-338q-72 0 -99.5 -27t-27.5 -94l-4 -459q0 -150 -50 -204t-152 -54q-92 0 -93 53zM932 106h182q250 0 250 164 q0 104 -67.5 134t-182.5 30h-182v-328z" />
<glyph unicode="&#x45a;" horiz-adv-x="1634" d="M152 55v832q0 72 53 71q53 0 53 -71v-346h649v346q0 72 56 71q53 0 53 -71v-346h201q193 0 286 -107q57 -63 58 -164q0 -270 -342 -270h-304v434h-657v-379q0 -70 -53 -69q-53 0 -53 69zM1022 106h182q250 0 250 164q0 104 -67.5 134t-182.5 30h-182v-328z" />
<glyph unicode="&#x45b;" horiz-adv-x="1267" d="M76 1079q0 53 78 54v110q0 74 53 74t53 -74v-110h430q78 0 78 -54q0 -55 -78 -55h-430v-209q121 129 350 129h60q164 0 261 -30.5t145 -109.5t48 -220v-529q0 -70 -53 -69q-53 0 -53 69v527q0 113 -34 167t-101.5 71.5t-194.5 17.5h-18h-60q-350 0 -350 -365v-418 q0 -70 -53 -69q-53 0 -53 69v969q-78 0 -78 55z" />
<glyph unicode="&#x45c;" horiz-adv-x="1150" d="M152 49v844q0 66 53 65q53 0 53 -65v-367h221q63 0 152 154q96 160 183 220.5t179 60.5q82 0 82 -54q0 -53 -76 -53q-70 0 -131 -56.5t-131 -168.5q-70 -111 -108 -144q92 -35 158.5 -102.5t89.5 -134.5q55 -156 127 -156t71 -53q0 -53 -78 -53q-135 0 -206 153 q-20 49 -66 127q-92 154 -352 154h-115v-371q0 -63 -53 -63t-53 63zM461 1087q0 25 18 46l197 235q29 31 49 31t36.5 -15.5t16.5 -37.5q0 -23 -18 -46l-197 -235q-27 -31 -47 -31t-37.5 15.5t-17.5 37.5z" />
<glyph unicode="&#x45e;" horiz-adv-x="1267" d="M143 -178q0 59 54 59q53 0 53 -69q0 -70 24.5 -97.5t87.5 -27.5h551q59 0 77 19.5t18 82.5v340q-119 -129 -351 -129h-59q-164 0 -261 30.5t-145.5 109.5t-48.5 220v529q0 70 54 69q53 0 53 -69v-527q0 -113 33.5 -167t104.5 -71.5t210 -17.5h59q350 0 351 365v418 q0 70 53 69q53 0 53 -69v-1067q0 -135 -40 -188.5t-146 -53.5h-580q-170 0 -198 148q-6 33 -7 94zM326 1257v56h106v-88q0 -59 19.5 -80t76.5 -21h209q57 0 75.5 19.5t18.5 81.5v88h107v-56q0 -135 -39 -187t-147 -52h-240q-106 0 -146 53t-40 186z" />
<glyph unicode="&#x45f;" horiz-adv-x="1236" d="M154 0v889q0 70 53 69q53 0 53 -69v-783h717v783q0 70 53 69q53 0 53 -69v-889h-411v-117q0 -72 -54 -71q-53 0 -53 71v117h-411z" />
<glyph unicode="&#x462;" horiz-adv-x="1331" d="M59 983q0 51 64 51h4h295v211q0 72 53 72q51 0 55 -72v-209h308q70 0 69 -53q0 -51 -65 -51h-4h-308v-101h287q131 0 230.5 -52t154.5 -148t55 -221q0 -127 -54 -222.5t-153.5 -148.5t-232.5 -53h-342q-53 0 -53 71v873h-295q-68 0 -68 53zM530 92h287q162 0 248 85 t86 231q0 147 -86 232t-248 85h-287v-633z" />
<glyph unicode="&#x463;" horiz-adv-x="1349" d="M37 891q0 53 67 53h285v307q0 66 53 66t54 -66v-307h290q70 0 70 -53t-70 -53h-290v-215h403q172 0 271.5 -84t99.5 -244t-109.5 -227.5t-345.5 -67.5h-371q-55 0 -55 72v766h-285q-68 0 -67 53zM496 106h319q137 0 210 16.5t105.5 59.5t32.5 129q0 84 -34.5 128 t-109.5 60.5t-210 16.5h-313v-410z" />
<glyph unicode="&#x472;" horiz-adv-x="1216" d="M133 467v369q0 150 60.5 259t168 167.5t246.5 58.5t247 -58.5t168 -169t60 -257.5v-369q0 -147 -60 -258t-167.5 -169t-247.5 -58q-139 0 -246.5 58t-168 167.5t-60.5 259.5zM240 475q0 -184 96 -285.5t272 -101.5t272.5 101.5t96.5 285.5v135q-66 -47 -135 -47 q-68 0 -242 41t-219 41q-49 0 -141 -67v-103zM240 705q59 47 131 47q67 0 241 -41t222 -41q53 0 143 69v88q0 184 -96.5 285.5t-272.5 101.5t-272 -101t-96 -286v-122z" />
<glyph unicode="&#x473;" horiz-adv-x="1200" d="M127 360v224q0 141 48 219t146.5 109.5t262.5 31.5h34q164 0 261.5 -30.5t145.5 -109.5t48 -220v-224q0 -141 -48 -220t-145.5 -109.5t-261.5 -30.5h-34q-164 0 -262.5 31.5t-146.5 109.5t-48 219zM233 362q0 -113 34 -167t105.5 -71.5t211.5 -17.5h34q193 0 252 33 q57 31 77 80t20 143v64q-66 -47 -136 -47q-66 0 -239 41q-156 39 -211 39h-4q-51 -4 -144 -66v-31zM233 520q59 47 132 47q65 0 239 -41t219 -41q53 0 144 70v27q0 113 -33 167t-100.5 71.5t-196.5 17.5h-19h-34q-193 0 -252 -33q-59 -31 -79 -80t-20 -143v-62z" />
<glyph unicode="&#x490;" d="M168 55v987q0 145 44 203t161 58h610v157q0 72 53 72t54 -72v-264h-703q-66 0 -89.5 -26.5t-23.5 -94.5v-1020q0 -70 -53 -69q-53 0 -53 69z" />
<glyph unicode="&#x491;" horiz-adv-x="987" d="M150 55v631q0 145 44 201.5t160 56.5h486v158q0 72 53 72t53 -72v-264h-577q-66 0 -89.5 -27t-23.5 -94v-662q0 -70 -53 -69q-53 0 -53 69z" />
<glyph unicode="&#x2000;" horiz-adv-x="876" />
<glyph unicode="&#x2001;" horiz-adv-x="1753" />
<glyph unicode="&#x2002;" horiz-adv-x="876" />
<glyph unicode="&#x2003;" horiz-adv-x="1753" />
<glyph unicode="&#x2004;" horiz-adv-x="584" />
<glyph unicode="&#x2005;" horiz-adv-x="438" />
<glyph unicode="&#x2006;" horiz-adv-x="292" />
<glyph unicode="&#x2007;" horiz-adv-x="292" />
<glyph unicode="&#x2008;" horiz-adv-x="219" />
<glyph unicode="&#x2009;" horiz-adv-x="350" />
<glyph unicode="&#x200a;" horiz-adv-x="97" />
<glyph unicode="&#x2010;" horiz-adv-x="964" d="M150 553q0 20 14 34.5t37 14.5h565q20 0 34.5 -14.5t14.5 -34.5t-14.5 -34.5t-34.5 -14.5h-565q-23 0 -37 14t-14 35z" />
<glyph unicode="&#x2011;" horiz-adv-x="964" d="M150 553q0 20 14 34.5t37 14.5h565q20 0 34.5 -14.5t14.5 -34.5t-14.5 -34.5t-34.5 -14.5h-565q-23 0 -37 14t-14 35z" />
<glyph unicode="&#x2012;" horiz-adv-x="964" d="M150 553q0 20 14 34.5t37 14.5h565q20 0 34.5 -14.5t14.5 -34.5t-14.5 -34.5t-34.5 -14.5h-565q-23 0 -37 14t-14 35z" />
<glyph unicode="&#x2013;" d="M150 555q0 49 51 49h747q49 0 49 -49t-49 -49h-747q-51 0 -51 49z" />
<glyph unicode="&#x2014;" horiz-adv-x="1669" d="M150 553q0 20 15 34.5t36 14.5h1267q20 0 36 -14.5t16 -34.5t-14.5 -35.5t-37.5 -15.5h-1267q-21 0 -36 15t-15 36z" />
<glyph unicode="&#x2018;" horiz-adv-x="458" d="M102 1098v39q0 27 13 41l88 190q14 35 47 35q24 0 36.5 -12.5t12.5 -32.5q0 -14 -6 -31l-64 -137q29 -12 29 -53v-39q0 -29 -15.5 -44.5t-43.5 -15.5h-39q-57 0 -58 60z" />
<glyph unicode="&#x2019;" horiz-adv-x="413" d="M68 1077q0 16 6 31l63 137q-29 12 -28 53v39q0 29 15 44.5t44 15.5h39q57 0 57 -60v-39q0 -25 -12 -41l-88 -190q-14 -35 -47 -35q-25 0 -37 12.5t-12 32.5z" />
<glyph unicode="&#x201a;" horiz-adv-x="413" d="M68 -164q0 14 6 31l63 137q-29 12 -28 53v39q0 29 15 44.5t44 15.5h39q57 0 57 -60v-39q0 -25 -12 -41l-88 -190q-14 -35 -47 -35q-25 0 -37 12.5t-12 32.5z" />
<glyph unicode="&#x201c;" horiz-adv-x="745" d="M102 1098v39q0 27 13 41l88 190q14 35 47 35q24 0 36.5 -12.5t12.5 -32.5q0 -14 -6 -31l-64 -137q29 -12 29 -53v-39q0 -29 -15.5 -44.5t-43.5 -15.5h-39q-57 0 -58 60zM389 1098v39q0 27 13 41l88 190q14 35 47 35q24 0 36.5 -12.5t12.5 -32.5q0 -14 -6 -31l-64 -137 q29 -12 29 -53v-39q0 -29 -15.5 -44.5t-43.5 -15.5h-39q-57 0 -58 60z" />
<glyph unicode="&#x201d;" horiz-adv-x="720" d="M68 1077q0 14 6 31l63 137q-29 12 -28 53v39q0 29 15 44.5t44 15.5h39q57 0 57 -60v-39q0 -25 -12 -41l-88 -190q-14 -35 -47 -35q-25 0 -37 12.5t-12 32.5zM375 1077q0 14 6 31l63 137q-29 12 -28 53v39q0 29 15 44.5t44 15.5h39q57 0 57 -60v-39q0 -25 -12 -41 l-88 -190q-14 -35 -47 -35q-25 0 -37 12.5t-12 32.5z" />
<glyph unicode="&#x201e;" horiz-adv-x="720" d="M68 -164q0 14 6 31l63 137q-29 12 -28 53v39q0 29 15 44.5t44 15.5h39q57 0 57 -60v-39q0 -25 -12 -41l-88 -190q-14 -35 -47 -35q-25 0 -37 12.5t-12 32.5zM375 -164q0 14 6 31l63 137q-29 12 -28 53v39q0 29 15 44.5t44 15.5h39q57 0 57 -60v-39q0 -25 -12 -41 l-88 -190q-14 -35 -47 -35q-25 0 -37 12.5t-12 32.5z" />
<glyph unicode="&#x2020;" horiz-adv-x="753" d="M102 913q0 53 54 54h168v399q0 53 53 53t53 -53v-399h168q53 0 53 -54q0 -53 -53 -53h-168v-1216q0 -53 -53 -54q-53 1 -53 54v1216h-168q-53 0 -54 53z" />
<glyph unicode="&#x2021;" horiz-adv-x="753" d="M102 53q0 53 54 53h168v754h-168q-53 0 -54 53q0 53 54 54h168v403q0 53 53 53t53 -53v-403h168q53 0 53 -54q0 -53 -53 -53h-168v-754h168q53 0 53 -53t-53 -53h-168v-356q0 -53 -53 -54q-53 1 -53 54v356h-168q-53 0 -54 53z" />
<glyph unicode="&#x2022;" horiz-adv-x="610" d="M150 492v77q0 57 31.5 88t86.5 31h78q55 0 85 -30.5t30 -88.5v-77q0 -57 -30 -88t-85 -31h-78q-55 0 -86.5 30.5t-31.5 88.5z" />
<glyph unicode="&#x2026;" horiz-adv-x="1167" d="M150 59v39q0 29 15 44.5t44 15.5h39q57 0 57 -60v-39q0 -59 -57 -59h-39q-29 0 -44 15.5t-15 43.5zM506 59v39q0 29 15 44.5t44 15.5h39q57 0 57 -60v-39q0 -59 -57 -59h-39q-29 0 -44 15.5t-15 43.5zM863 59v39q0 29 15 44.5t44 15.5h39q57 0 57 -60v-39q0 -59 -57 -59 h-39q-29 0 -44 15.5t-15 43.5z" />
<glyph unicode="&#x202f;" horiz-adv-x="350" />
<glyph unicode="&#x2030;" horiz-adv-x="2215" d="M109 899v154q0 137 64.5 201.5t201.5 64.5h33q135 0 199.5 -64.5t64.5 -201.5v-152q0 -137 -64.5 -201.5t-199.5 -64.5h-33q-137 0 -201.5 64.5t-64.5 199.5zM213 899q0 -90 35 -125t127 -35h33q90 0 124.5 35t34.5 127v152q0 92 -34.5 126.5t-124.5 34.5h-33 q-92 0 -127 -33.5t-35 -127.5v-154zM240 45q0 16 10 33l944 1249q16 23 43 23q23 0 38 -15.5t15 -38.5q0 -10 -4 -19t-6 -13l-944 -1250q-16 -23 -43 -22q-23 0 -38 15.5t-15 37.5zM874 264v154q0 137 65 201.5t200 64.5h32q135 0 200 -64.5t65 -201.5v-152 q0 -137 -64.5 -201.5t-200.5 -64.5h-32q-135 0 -200 64.5t-65 199.5zM977 264q0 -90 35 -125t127 -35h32q92 0 127 35t35 127v152q0 92 -34.5 127t-127.5 35h-32q-92 0 -127 -34t-35 -128v-154zM1542 264v154q0 137 64.5 201.5t201.5 64.5h33q135 0 199.5 -64.5t64.5 -201.5 v-152q0 -137 -64.5 -201.5t-199.5 -64.5h-33q-137 0 -201.5 64.5t-64.5 199.5zM1647 264q0 -90 34.5 -125t126.5 -35h33q90 0 125 35t35 127v152q0 92 -35 127t-125 35h-33q-92 0 -126.5 -34t-34.5 -128v-154z" />
<glyph unicode="&#x2039;" horiz-adv-x="825" d="M172 602q0 18 21 35l380 315q14 10 33 11q20 0 34.5 -14.5t14.5 -35.5q0 -20 -18 -39l-332 -272l332 -272q18 -18 18 -39q0 -20 -14 -34.5t-35 -14.5q-19 0 -33 10l-380 315q-20 16 -21 35z" />
<glyph unicode="&#x203a;" horiz-adv-x="825" d="M170 291q0 20 18 39l332 272l-332 272q-18 18 -18 39q0 20 14.5 35t34.5 15q18 0 33 -11l381 -315q20 -14 20 -35q0 -20 -20 -35l-381 -315q-14 -10 -33 -10q-20 0 -34.5 14t-14.5 35z" />
<glyph unicode="&#x2044;" horiz-adv-x="512" d="M-334 45q0 16 10 33l945 1249q16 23 43 23q23 0 38 -15.5t15 -38.5q0 -10 -4 -19t-6 -13l-945 -1250q-16 -23 -43 -22q-22 0 -37.5 15.5t-15.5 37.5z" />
<glyph unicode="&#x205f;" horiz-adv-x="438" />
<glyph unicode="&#x20ac;" horiz-adv-x="1306" d="M100 559q0 23 14.5 37t37.5 14h118v119h-118q-23 0 -37.5 13.5t-14.5 35.5q0 23 14.5 36t37.5 13h118v64q0 223 101.5 325.5t322.5 100.5h248q98 0 161.5 -31t129.5 -108q12 -16 12 -33q0 -23 -15.5 -38t-37.5 -15q-23 0 -41 18q-51 61 -92 80.5t-117 19.5h-248 q-119 2 -187.5 -28.5t-99 -100t-30.5 -190.5v-64h633q23 0 37 -13t14 -36t-14.5 -36t-36.5 -13h-633v-119h522q23 0 36 -14t13 -37t-13 -36t-36 -13h-522v-84q0 -119 30.5 -188.5t99 -100.5t189.5 -31h246q88 0 133 20.5t72 74.5q14 27 45 26q22 0 37.5 -15t15.5 -38 q0 -10 -8 -27q-43 -78 -112.5 -112.5t-182.5 -34.5h-246q-223 0 -324.5 102.5t-101.5 323.5v84h-118q-23 0 -37.5 13.5t-14.5 35.5z" />
<glyph unicode="&#x2122;" horiz-adv-x="1499" d="M102 1262q0 47 50 47h450q47 0 47 -47q0 -49 -47 -50h-178v-530q0 -49 -47 -49q-49 0 -49 49v530h-176q-49 0 -50 50zM768 682v580q0 47 49 47q31 0 41 -23l225 -338l222 338q14 23 41 23q51 0 51 -47v-580q0 -49 -49 -49q-47 0 -48 49v420l-174 -264q-14 -23 -43 -23 t-43 23l-176 266v-422q0 -49 -49 -49q-47 0 -47 49z" />
<glyph unicode="&#x2202;" horiz-adv-x="946" d="M106 1282q0 43 48 43q213 0 367.5 -92t235.5 -259t81 -386q0 -162 -51.5 -302.5t-147.5 -225.5t-227 -85q-138 0 -210.5 83t-72.5 225q0 150 72.5 263t201.5 175.5t295 71.5q-49 184 -179 302.5t-349 135.5q-63 2 -64 51zM238 274q0 -90 47 -140t137 -50q98 0 166.5 70.5 t103.5 183.5t35 237q0 59 -6 111q-139 -4 -249 -54t-172 -142.5t-62 -215.5z" />
<glyph unicode="&#x2206;" horiz-adv-x="1124" d="M57 43q0 14 6 27l443 837q25 47 55 47q29 0 57 -47l441 -833q10 -16 10 -33q0 -20 -15.5 -35.5t-41.5 -15.5h-897q-29 0 -43.5 15t-14.5 38zM211 98h702l-350 660z" />
<glyph unicode="&#x220f;" horiz-adv-x="1413" d="M190 1264q0 55 54 55h925q54 0 54 -55q0 -53 -54 -54h-75v-1157q0 -25 -14.5 -39t-39.5 -14t-39 14.5t-14 38.5v1157h-567v-1157q0 -25 -14.5 -39t-38.5 -14q-25 0 -39.5 14.5t-14.5 38.5v1157h-69q-53 0 -54 54z" />
<glyph unicode="&#x2211;" horiz-adv-x="1228" d="M57 47q0 20 21 47l495 559l-495 561q-20 25 -21 48q1 51 64 51h895q70 0 69 -58q0 -49 -69 -49h-789l451 -508q25 -27 24 -45q0 -16 -22 -45l-453 -504h789q33 0 51 -15t18 -42q0 -49 -69 -49h-907q-20 0 -36 14.5t-16 34.5z" />
<glyph unicode="&#x221a;" horiz-adv-x="1044" d="M45 438q0 20 23 47l131 129q27 27 53 27q25 0 47 -35l299 -426l193 1086q10 59 53 59q53 0 53 -55q0 -16 -2 -23l-211 -1200q-8 -57 -55 -57q-33 0 -51 35l-338 481l-97 -96q-25 -25 -47 -25q-20 0 -35.5 15.5t-15.5 37.5z" />
<glyph unicode="&#x221e;" horiz-adv-x="1820" d="M119 655q0 90 51 167t130 122t155 45q109 0 204 -57.5t252 -204.5q156 147 251 204.5t200 57.5q80 0 161 -46t132 -123t51 -167t-52 -167.5t-131 -123t-155 -45.5q-109 0 -204 57.5t-251 205.5q-156 -147 -252 -205t-198 -58q-80 0 -161 46.5t-132 124t-51 167.5z M225 655q0 -59 36 -112.5t97.5 -86t133.5 -32.5q110 0 346 229q-231 229 -355 230q-68 0 -127 -32t-95 -84t-36 -112zM987 653q231 -231 352 -231q68 0 127.5 32.5t96 86t36.5 110.5t-36.5 110.5t-96 86.5t-127.5 33q-119 0 -352 -228z" />
<glyph unicode="&#x222b;" horiz-adv-x="669" d="M18 -369q0 53 74 54q96 0 132 15t47.5 65.5t11.5 181.5v1280q0 127 27.5 194.5t91 94t178.5 26.5q74 0 73 -53q0 -53 -73 -53q-96 0 -132 -15.5t-47.5 -65.5t-11.5 -181v-1280q0 -129 -27.5 -197t-91 -93.5t-178.5 -25.5q-74 0 -74 53z" />
<glyph unicode="&#x2248;" d="M150 420q0 10 8 26q47 78 101 110t136 32q68 0 113 -17.5t96 -50.5q41 -27 72 -40t72 -13q53 0 91 22.5t68 71.5q18 27 43 27q20 0 32.5 -12.5t12.5 -30.5q0 -16 -8 -31q-82 -141 -239 -141q-59 0 -98.5 15t-84.5 46q-43 29 -79.5 44.5t-90.5 15.5q-57 0 -89 -19.5 t-68 -79.5q-12 -23 -39 -22q-21 0 -35 13t-14 34zM150 686q0 10 8 27q47 78 101 109.5t136 31.5q68 0 113 -17.5t96 -50.5q41 -27 72 -40t72 -13q53 0 91 22.5t68 71.5q18 27 43 27q20 0 32.5 -13.5t12.5 -31.5q0 -14 -8 -29q-86 -141 -239 -141q-59 0 -98.5 15.5 t-84.5 45.5q-43 29 -79.5 44.5t-90.5 15.5q-57 0 -89 -19.5t-68 -78.5q-12 -23 -39 -23q-21 0 -35 13.5t-14 33.5z" />
<glyph unicode="&#x2260;" d="M150 535q0 49 51 49h288l70 164h-358q-51 0 -51 49t51 49h399l64 151q12 27 34 27l19 -4q27 -12 26 -35l-4 -18l-51 -121h260q49 0 49 -49t-49 -49h-301l-67 -164h368q49 0 49 -49t-49 -50h-411l-60 -143q-12 -27 -35 -27l-18 4q-27 12 -27 35l4 19l48 112h-248 q-51 0 -51 50z" />
<glyph unicode="&#x2264;" d="M215 379q0 51 51 51h619q51 0 51 -51t-51 -51h-619q-51 0 -51 51zM215 803q0 47 41 61l610 226q8 4 23 4q31 0 43 -35q4 -16 4 -23q0 -31 -35 -43l-520 -190l520 -185q35 -12 35 -45q0 -4 -4 -20q-12 -33 -43 -33q-14 0 -23 4l-610 219q-41 17 -41 60z" />
<glyph unicode="&#x2265;" d="M215 379q0 51 51 51h619q51 0 51 -51t-51 -51h-619q-51 0 -51 51zM215 573q0 33 35 45l520 185l-520 190q-35 12 -35 43q0 6 4 23q12 35 43 35q14 0 23 -4l610 -226q41 -14 41 -61q0 -43 -41 -60l-610 -219q-8 -4 -23 -4q-31 0 -43 33q-4 16 -4 20z" />
<glyph unicode="&#x25ca;" horiz-adv-x="980" d="M63 651q0 16 7 29l374 633h95l372 -633q8 -20 9 -29q0 -8 -9 -28l-372 -633h-95l-374 633q-6 16 -7 28zM172 651l320 -553l319 553l-319 553z" />
<glyph unicode="&#x25fc;" horiz-adv-x="962" d="M0 0v963h963v-963h-963z" />
<glyph unicode="&#xfb03;" horiz-adv-x="1720" d="M68 913q0 53 53 54h88v90q0 188 87 275t275 87q51 0 52 -53q0 -53 -52 -53q-143 0 -199.5 -56.5t-56.5 -199.5v-90h504v92q0 188 87 274t276 86h323q64 1 64 -69v-43q0 -33 -16.5 -50.5t-47.5 -17.5h-45q-25 0 -43 12l-235 62q-143 0 -199.5 -55.5t-56.5 -198.5v-92h559 q53 0 53 -54q0 -12 -2 -18v-842q0 -53 -53 -53q-25 0 -39 13.5t-14 39.5v807h-504v-807q0 -53 -54 -53q-53 0 -53 53v807h-504v-807q0 -53 -53 -53t-53 53v807h-88q-53 0 -53 53z" />
<glyph unicode="&#xfb04;" horiz-adv-x="1794" d="M68 913q0 53 53 54h88v90q0 188 87 275t275 87q51 0 52 -53q0 -53 -52 -53q-143 0 -199.5 -56.5t-56.5 -199.5v-90h498v90q0 188 87 275t276 87h301q53 0 53 -53v-1114q0 -80 30.5 -111.5t112.5 -34.5q29 -2 41 -15t12 -40q0 -25 -13 -39t-40 -12q-127 4 -188.5 65.5 t-61.5 186.5v1061h-247q-143 0 -199.5 -55.5t-56.5 -200.5v-90h251q53 0 54 -54q0 -53 -54 -53h-251v-807q0 -53 -54 -53q-53 0 -53 53v807h-498v-807q0 -53 -53 -53t-53 53v807h-88q-53 0 -53 53z" />
</font>
</defs>
</svg>
