<svg xmlns="http://www.w3.org/2000/svg" viewBox="0 0 244.08 47.816">
  <defs>
    <style>
      .cls-1 {
        fill: #f0f0f0;
      }
    </style>
  </defs>
  <path id="веб_3" data-name="веб 3" class="cls-1" d="M216.832,44.378a6.762,6.762,0,0,0-1.125,0H134.264a6.762,6.762,0,0,0-1.125,0h-.062c-4.625.062-9.938,2.313-13.376,3.438A14.828,14.828,0,0,0,121.45,42a33.217,33.217,0,0,0-.125-8.626,12.037,12.037,0,0,1-.063-1.5V12.5A12.5,12.5,0,0,1,133.763,0H351.279a12.458,12.458,0,0,1,12.5,12.5V31.877a12.5,12.5,0,0,1-12.5,12.5H260.46a6.762,6.762,0,0,0-1.125,0h-42.5Z" transform="translate(-119.7)"/>
</svg>
