<svg xmlns="http://www.w3.org/2000/svg" xmlns:xlink="http://www.w3.org/1999/xlink" viewBox="0 0 244.081 47.816">
  <defs>
    <style>
      .cls-1 {
        fill: url(#linear-gradient);
      }
    </style>
    <linearGradient id="linear-gradient" x1="0.5" x2="0.5" y2="1" gradientUnits="objectBoundingBox">
      <stop offset="0" stop-color="#4ea7ec"/>
      <stop offset="1" stop-color="#187ecf"/>
    </linearGradient>
  </defs>
  <path id="веб_4" data-name="веб 4" class="cls-1" d="M266.648,44.378a6.762,6.762,0,0,1,1.125,0h81.444a6.762,6.762,0,0,1,1.125,0h.063c4.625.062,9.938,2.313,13.376,3.438A14.828,14.828,0,0,1,362.03,42a33.217,33.217,0,0,1,.125-8.626,12.033,12.033,0,0,0,.063-1.5V12.5A12.5,12.5,0,0,0,349.717,0H132.2a12.458,12.458,0,0,0-12.5,12.5V31.877a12.5,12.5,0,0,0,12.5,12.5H223.02a6.762,6.762,0,0,1,1.125,0h42.5Z" transform="translate(-119.7)"/>
</svg>
