<svg xmlns="http://www.w3.org/2000/svg" viewBox="0 0 244.08 58.679">
  <defs>
    <style>
      .cls-1 {
        fill: #f0f0f0;
      }
    </style>
  </defs>
  <path id="веб_5" data-name="веб 5" class="cls-1" d="M216.832,54.461a5.515,5.515,0,0,0-1.125,0H134.264a5.515,5.515,0,0,0-1.125,0h-.062c-4.625.077-9.938,2.838-13.376,4.219a21.3,21.3,0,0,0,1.75-7.134,49.948,49.948,0,0,0-.125-10.585,18.107,18.107,0,0,1-.063-1.841V15.341c0-8.514,5.625-15.341,12.5-15.341H351.279c6.938,0,12.5,6.827,12.5,15.341V39.12c0,8.438-5.563,15.341-12.5,15.341H260.46a5.515,5.515,0,0,0-1.125,0h-42.5Z" transform="translate(-119.7)"/>
</svg>
